<svg xmlns="http://www.w3.org/2000/svg" xml:space="preserve" class="svgPuzzle" version="1.1" style="shape-rendering:geometricPrecision; text-rendering:geometricPrecision; image-rendering:optimizeQuality; fill-rule:evenodd; clip-rule:evenodd"
viewBox="0 0 101000 101000"
 xmlns:xlink="http://www.w3.org/1999/xlink">
 <g>
   <path style="fill:#FFCA05" d="M1780 60816c0,-7121 5928,-12894 13050,-12894l7302 0 0 -25790 25789 0 0 -7301c0,-7122 5774,-13050 12897,-13050 7120,0 12894,5928 12894,13050l0 7302 25789 -1 0 77368 -77368 0 0 -25789 -7302 0c-7121,0 -13050,-5774 -13050,-12895z"/>
   <path style="fill:black" d="M280 60815c0,-3964 1648,-7558 4285,-10162 2643,-2613 6289,-4231 10265,-4231l5803 0 0 -24289 0 -1500 1500 0 24287 0 0 -5803c0,-3976 1618,-7622 4232,-10265 2606,-2636 6199,-4284 10164,-4284 3965,0 7558,1648 10164,4284 2614,2643 4232,6289 4232,10265l0 5803 24289 0 1500 0 0 1500 0 77367 0 1500 -1500 0 -77367 0 -1500 0 0 -1500 0 -24289 -5803 0c-3976,0 -7623,-1618 -10266,-4232 -2636,-2606 -4284,-6200 -4284,-10165zm6383 -8029c-2082,2056 -3383,4896 -3383,8029 0,3135 1300,5976 3382,8032 2102,2078 5002,3365 8169,3365l7303 0 1500 0 0 1500 0 24289 74367 0 0 -74367 -24289 0 -1500 0 0 -1500 0 -7303c0,-3165 -1287,-6065 -3365,-8167 -2055,-2081 -4896,-3382 -8030,-3382 -3135,0 -5975,1300 -8030,3382 -2078,2102 -3365,5002 -3365,8167l0 7303 0 1500 -1500 0 -24287 0 0 24289 0 1500 -1500 0 -7303 0c-3167,0 -6066,1287 -8167,3364z"/>
   <path style="fill:black" d="M38630 57145l1942 0 3396 9312 -2203 0 -722 -2086 -2898 0 -707 2086 -2204 0 3397 -9312zm2059 5745l-1088 -3292 -1115 3292 2203 0zm4198 3567l0 -9312 4197 0c437,0 842,92 1213,275 372,184 693,424 965,722 270,298 483,634 635,1010 154,376 229,756 229,1141 0,288 -34,566 -104,833 -71,267 -171,519 -302,755 -131,236 -291,448 -478,635 -188,188 -400,348 -637,480l2047 3462 -2427 0 -1783 -3004 -1403 0 0 3004 -2151 0zm2151 -4879l1968 0c253,0 471,-119 656,-360 183,-241 275,-549 275,-925 0,-385 -105,-691 -314,-918 -210,-228 -438,-341 -683,-341l-1902 0 0 2544zm6099 144c0,-559 105,-1116 314,-1671 210,-555 516,-1051 919,-1489 402,-437 892,-791 1468,-1062 578,-272 1233,-406 1968,-406 874,0 1631,188 2274,563 643,377 1122,866 1436,1469l-1652 1154c-105,-244 -239,-448 -400,-609 -161,-162 -338,-293 -530,-393 -191,-102 -389,-171 -589,-210 -201,-39 -398,-59 -591,-59 -411,0 -769,83 -1075,249 -306,167 -560,380 -761,643 -201,262 -350,560 -446,892 -96,332 -144,669 -144,1010 0,367 57,722 171,1063 113,340 278,643 491,905 214,262 472,470 774,622 301,154 640,229 1017,229 191,0 391,-24 596,-72 206,-47 402,-122 589,-222 188,-102 360,-233 517,-394 157,-161 285,-360 380,-596l1758 1036c-139,341 -347,647 -622,919 -276,270 -593,498 -951,682 -359,184 -739,324 -1141,419 -402,97 -795,145 -1180,145 -673,0 -1292,-138 -1856,-413 -563,-275 -1049,-640 -1456,-1095 -406,-455 -720,-971 -944,-1548 -223,-576 -334,-1162 -334,-1758zm17574 -4577l0 9312 -2151 0 0 -3816 -3712 0 0 3816 -2151 0 0 -9312 2151 0 0 3607 3712 0 0 -3607 2151 0zm1783 9312l0 -9312 2151 0 0 9312 -2151 0zm5286 -9312l2190 6611 2164 -6611 2269 0 -3528 9312 -1809 0 -3567 -9312 2282 0z"/>
 </g>
</svg>
