<svg xmlns="http://www.w3.org/2000/svg" xml:space="preserve" version="1.1" style="shape-rendering:geometricPrecision; text-rendering:geometricPrecision; image-rendering:optimizeQuality; fill-rule:evenodd; clip-rule:evenodd"
viewBox="0 0 155000 155000"
 xmlns:xlink="http://www.w3.org/1999/xlink">
 <defs>
  <style type="text/css">
    .fil1 { fill:white }
    .fil0 { fill:#FFCA05 }
    .fil2 { fill:white;fill-rule:nonzero }
  </style>
 </defs>
  <g>
   <path class="fil0" d="M2306 93159c0,-10958 9123,-19843 20084,-19843l11237 0 0 -39689 39689 0 0 -11236c0,-10961 8886,-20084 19847,-20084 10957,0 19843,9123 19843,20084l0 11237 39689 -1 0 119065 -119066 0 0 -39688 -11238 0c-10958,0 -20082,-8886 -20082,-19845l-2 0z"/>
   <path class="fil1" d="M-2 93158c0,-6100 2536,-11632 6594,-15639 4068,-4021 9679,-6511 15797,-6511l8930 0 0 -37379 0 -2309 2309 0 37376 0 0 -8930c0,-6118 2490,-11730 6513,-15797 4010,-4056 9540,-6592 15641,-6592 6103,0 11632,2536 15643,6592 4023,4068 6513,9679 6513,15797l0 8930 37380 0 2308 0 0 2309 0 119063 0 2309 -2308 0 -119065 0 -2308 0 0 -2309 0 -37380 -8930 0c-6119,0 -11732,-2490 -15800,-6513 -4056,-4010 -6593,-9541 -6593,-15643l-1 1zm9823 -12356c-3204,3163 -5206,7534 -5206,12356 0,4825 2001,9197 5205,12360 3234,3198 7697,5179 12571,5179l11239 0 2308 0 0 2308 0 37380 114448 0 0 -114446 -37380 0 -2308 0 0 -2309 0 -11238c0,-4871 -1981,-9334 -5178,-12569 -3163,-3202 -7536,-5204 -12358,-5204 -4825,0 -9196,2001 -12358,5204 -3198,3235 -5179,7699 -5179,12569l0 11238 0 2309 -2308 0 -37376 0 0 37379 0 2309 -2309 0 -11238 0c-4874,0 -9336,1981 -12568,5177l-4 -1z"/>
   <path class="fil2" d="M45500 101832l0 -14322 5346 0c1183,0 2219,188 3108,565 887,377 1630,888 2229,1533 599,646 1049,1402 1351,2270 302,867 455,1792 455,2773 0,1089 -169,2074 -504,2955 -337,881 -817,1635 -1443,2259 -625,626 -1378,1109 -2258,1453 -881,343 -1860,514 -2936,514l-5346 0zm9118 -7181c0,-632 -84,-1207 -252,-1724 -169,-519 -413,-965 -737,-1342 -322,-377 -719,-666 -1189,-867 -471,-202 -1002,-304 -1595,-304l-2037 0 0 8513 2037 0c606,0 1143,-107 1615,-322 470,-216 863,-515 1180,-898 317,-384 557,-834 726,-1352 168,-517 252,-1085 252,-1704zm5326 7181l0 -14322 3308 0 0 14322 -3308 0zm14646 -10126c-40,-54 -182,-155 -424,-304 -242,-148 -544,-302 -907,-463 -364,-162 -761,-304 -1191,-424 -431,-122 -861,-182 -1291,-182 -1183,0 -1775,397 -1775,1191 0,242 64,444 191,605 128,162 317,306 565,433 249,129 562,246 938,353 377,107 814,229 1312,364 685,188 1304,393 1856,615 552,222 1018,497 1402,827 383,330 679,730 887,1200 209,471 313,1036 313,1695 0,807 -151,1489 -454,2047 -302,559 -703,1009 -1200,1352 -498,343 -1070,592 -1715,746 -646,154 -1311,231 -1997,231 -524,0 -1062,-40 -1613,-120 -552,-81 -1090,-198 -1615,-353 -524,-155 -1031,-340 -1522,-555 -491,-215 -945,-464 -1362,-746l1453 -2884c53,67 228,195 524,383 295,189 663,377 1100,565 437,189 924,357 1462,504 537,149 1082,222 1633,222 1170,0 1755,-356 1755,-1069 0,-269 -87,-491 -262,-666 -175,-175 -417,-332 -726,-474 -309,-141 -676,-273 -1098,-393 -424,-120 -885,-255 -1382,-404 -659,-201 -1231,-419 -1715,-656 -484,-235 -885,-507 -1200,-816 -317,-309 -552,-666 -706,-1070 -155,-403 -231,-874 -231,-1411 0,-754 141,-1419 423,-1997 282,-579 666,-1065 1150,-1462 484,-397 1045,-696 1684,-898 639,-202 1315,-302 2027,-302 497,0 989,46 1473,141 484,94 948,215 1391,364 444,148 857,315 1241,504 383,188 736,376 1059,565l-1453 2744zm3813 10126l0 -14322 3308 0 0 6173 5244 -6173 3712 0 -5366 6395 5728 7928 -3771 0 -4055 -5769 -1493 1553 0 4215 -3308 0zm19850 -2824c565,0 1042,-117 1432,-353 391,-235 706,-548 948,-938 242,-390 413,-837 515,-1342 100,-504 151,-1018 151,-1543l0 -7323 3308 0 0 7323c0,994 -125,1923 -373,2784 -249,861 -632,1613 -1150,2259 -517,645 -1176,1153 -1976,1522 -801,370 -1753,555 -2855,555 -1143,0 -2119,-195 -2926,-585 -807,-391 -1462,-912 -1967,-1564 -504,-652 -874,-1409 -1109,-2270 -236,-860 -353,-1761 -353,-2702l0 -7323 3308 0 0 7323c0,552 53,1076 161,1573 109,497 283,941 526,1331 241,390 554,699 938,928 383,228 857,343 1422,343zm17510 -7302c-41,-54 -182,-155 -424,-304 -242,-148 -544,-302 -908,-463 -363,-162 -759,-304 -1189,-424 -431,-122 -861,-182 -1291,-182 -1183,0 -1775,397 -1775,1191 0,242 64,444 191,605 128,162 317,306 565,433 249,129 561,246 938,353 377,107 814,229 1311,364 686,188 1305,393 1857,615 552,222 1018,497 1402,827 383,330 679,730 887,1200 209,471 313,1036 313,1695 0,807 -151,1489 -454,2047 -304,559 -703,1009 -1201,1352 -497,343 -1069,592 -1714,746 -646,154 -1311,231 -1997,231 -524,0 -1063,-40 -1613,-120 -552,-81 -1090,-198 -1615,-353 -524,-155 -1032,-340 -1522,-555 -491,-215 -945,-464 -1362,-746l1453 -2884c53,67 228,195 524,383 295,189 661,377 1098,565 438,189 925,357 1463,504 537,149 1082,222 1633,222 1170,0 1755,-356 1755,-1069 0,-269 -87,-491 -262,-666 -175,-175 -417,-332 -726,-474 -309,-141 -676,-273 -1100,-393 -423,-120 -883,-255 -1382,-404 -658,-201 -1230,-419 -1714,-656 -484,-235 -885,-507 -1201,-816 -315,-309 -550,-666 -705,-1070 -155,-403 -233,-874 -233,-1411 0,-754 142,-1419 424,-1997 282,-579 666,-1065 1149,-1462 484,-397 1046,-696 1685,-898 638,-202 1315,-302 2027,-302 497,0 989,46 1473,141 484,94 947,215 1391,364 444,148 857,315 1241,504 383,188 736,376 1058,565l-1452 2744zm13878 7221l0 2904 -10065 0 0 -14322 9884 0 0 2904 -6575 0 0 2784 5648 0 0 2683 -5648 0 0 3046 6757 0z"/>
  </g>
</svg>
