<svg xmlns="http://www.w3.org/2000/svg" xml:space="preserve" class="svgPuzzle" version="1.1" style="shape-rendering:geometricPrecision; text-rendering:geometricPrecision; image-rendering:optimizeQuality; fill-rule:evenodd; clip-rule:evenodd"
viewBox="0 0 101000 101000"
 xmlns:xlink="http://www.w3.org/1999/xlink">
 <g>
   <path style="fill:#69B300" d="M58509 60822c0,-7121 5927,-12893 13048,-12893l7302 0 0 -25786 -25786 0 0 7302c0,7120 -5771,13048 -12893,13048 -7120,0 -12893,-5928 -12893,-13048l0 -7302 -25786 0 0 77358 77359 0 0 -25785 -7302 0c-7121,0 -13048,-5773 -13048,-12893z"/>
   <path style="fill:white" d="M57009 60822c0,-3965 1648,-7557 4284,-10162 2643,-2613 6288,-4231 10264,-4231l5802 0 0 -22786 -22786 0 0 5802c0,3976 -1618,7621 -4231,10264 -2606,2636 -6197,4284 -10162,4284 -3964,0 -7557,-1648 -10162,-4284 -2613,-2645 -4231,-6291 -4231,-10264l0 -5802 -22786 0 0 74357 74359 0 0 -22785 -5802 0c-3973,0 -7619,-1618 -10264,-4231 -2636,-2606 -4284,-6199 -4284,-10162zm6382 -8029c-2081,2055 -3382,4895 -3382,8029 0,3134 1300,5974 3382,8029 2102,2078 5002,3364 8166,3364l7302 0 1500 0 0 1500 0 25785 0 1500 -1500 0 -77359 0 -1500 0 0 -1500 0 -77358 0 -1500 1500 0 25786 0 1500 0 0 1500 0 7302c0,3164 1286,6064 3364,8166 2055,2081 4896,3382 8029,3382 3135,0 5974,-1300 8029,-3382 2076,-2101 3364,-5001 3364,-8166l0 -7302 0 -1500 1500 0 25786 0 1500 0 0 1500 0 25786 0 1500 -1500 0 -7302 0c-3165,0 -6065,1287 -8166,3364z"/>

     <!-- text -->
   <path style="fill:white" d="M30267 57158l0 9312 -2151 0 0 -3816 -3712 0 0 3816 -2151 0 0 -9312 2151 0 0 3607 3712 0 0 -3607 2151 0zm1783 9312l0 -9312 4197 0c437,0 842,92 1213,275 372,184 693,424 965,722 270,298 483,634 635,1010 154,376 229,756 229,1141 0,288 -34,566 -104,833 -71,267 -171,519 -302,755 -131,236 -291,448 -478,635 -188,188 -400,348 -637,480l2047 3462 -2427 0 -1783 -3004 -1403 0 0 3004 -2151 0zm2151 -4879l1968 0c253,0 471,-119 656,-360 183,-241 275,-549 275,-925 0,-385 -105,-691 -314,-918 -210,-228 -438,-341 -683,-341l-1902 0 0 2544zm9024 -4433l1941 0 3396 9312 -2203 0 -722 -2086 -2897 0 -707 2086 -2204 0 3397 -9312zm2058 5745l-1087 -3292 -1115 3292 2202 0z"/>
 </g>
</svg>
