<svg xmlns="http://www.w3.org/2000/svg" xml:space="preserve" class="svgPuzzle" version="1.1" style="shape-rendering:geometricPrecision; text-rendering:geometricPrecision; image-rendering:optimizeQuality; fill-rule:evenodd; clip-rule:evenodd"
viewBox="0 0 101000 101000"
 xmlns:xlink="http://www.w3.org/1999/xlink">
 <g>
   <path style="fill:red" d="M99221 40183c0,7121 -5928,12894 -13050,12894l-7302 0 0 25790 -25789 0 0 7301c0,7122 -5774,13050 -12897,13050 -7120,0 -12894,-5928 -12894,-13050l0 -7302 -25789 1 0 -77368 77368 0 0 25789 7302 0c7121,0 13050,5774 13050,12895z"/>
   <path style="fill:white" d="M100721 40183c0,3965 -1648,7558 -4284,10164 -2645,2613 -6291,4231 -10266,4231l-5802 0 0 24290 0 1500 -1500 0 -24289 0 0 5800c0,3976 -1618,7623 -4232,10266 -2606,2636 -6200,4284 -10165,4284 -3964,0 -7558,-1648 -10164,-4285 -2613,-2645 -4231,-6289 -4231,-10265l0 -5808 -24289 1 -1500 1 0 -1495 0 -77368 0 -1500 1500 0 77368 0 1500 0 0 1500 0 24289 5802 0c3973,0 7621,1619 10265,4232 2636,2604 4285,6199 4285,10164zm-6382 8030c2081,-2055 3382,-4896 3382,-8030 0,-3135 -1302,-5975 -3383,-8030 -2102,-2078 -5003,-3365 -8167,-3365l-7302 0 -1500 0 0 -1500 0 -24289 -74368 0 0 74374 24289 -1 1500 0 0 1494 0 7302c0,3165 1286,6065 3364,8167 2058,2082 4897,3383 8030,3383 3136,0 5976,-1300 8032,-3382 2078,-2102 3365,-5002 3365,-8169l0 -7301 0 -1500 1500 0 24289 0 0 -24290 0 -1500 1500 0 7302 0c3165,0 6066,-1286 8169,-3364z"/>
   <path style="fill:white" d="M24253 44826l0 -9312 2151 0 0 9312 -2151 0zm6085 -5324l0 5324 -2151 0 0 -9312 1678 0 4342 5470 0 -5470 2151 0 0 9312 -1732 0 -4289 -5324zm7804 5324l0 -9312 6321 0 0 1889 -4171 0 0 2007 3436 0 0 1745 -3436 0 0 3672 -2151 0zm11330 79c-690,0 -1319,-136 -1889,-407 -568,-270 -1052,-627 -1454,-1069 -403,-441 -715,-946 -938,-1514 -223,-568 -334,-1154 -334,-1758 0,-612 116,-1202 347,-1771 231,-568 555,-1069 971,-1501 415,-433 906,-778 1474,-1037 568,-257 1189,-386 1863,-386 691,0 1320,135 1889,406 568,270 1054,630 1455,1075 403,446 713,953 932,1522 219,568 327,1145 327,1730 0,612 -116,1202 -347,1771 -231,569 -553,1069 -964,1502 -411,432 -901,780 -1469,1043 -568,262 -1189,393 -1863,393zm-2426 -4722c0,359 53,706 157,1043 105,337 261,635 467,899 206,262 461,471 767,630 306,157 656,235 1050,235 410,0 769,-83 1075,-249 306,-165 560,-382 761,-648 201,-267 352,-568 452,-905 100,-337 151,-680 151,-1030 0,-359 -53,-706 -157,-1043 -105,-337 -262,-633 -472,-892 -210,-257 -465,-463 -768,-617 -301,-152 -648,-229 -1042,-229 -411,0 -768,80 -1069,242 -302,162 -556,374 -761,637 -206,262 -359,562 -459,899 -100,337 -151,679 -151,1029z"/>
 </g>
</svg>

