<svg xmlns="http://www.w3.org/2000/svg" xml:space="preserve" class="svgPuzzle" version="1.1" style="shape-rendering:geometricPrecision; text-rendering:geometricPrecision; image-rendering:optimizeQuality; fill-rule:evenodd; clip-rule:evenodd"
viewBox="0 0 101000 101000"
 xmlns:xlink="http://www.w3.org/1999/xlink">
  <g>
   <path style="fill:#005BD0" d="M42492 40177c0,7121 -5927,12893 -13048,12893l-7302 0 0 25786 25786 0 0 -7302c0,-7120 5771,-13048 12893,-13048 7120,0 12893,5928 12893,13048l0 7302 25786 0 0 -77358 -77359 0 0 25785 7302 0c7121,0 13048,5773 13048,12893z"/>
   <path style="fill:white" d="M43992 40177c0,3965 -1648,7557 -4284,10162 -2643,2613 -6288,4231 -10264,4231l-5802 0 0 22786 22786 0 0 -5802c0,-3976 1618,-7621 4231,-10264 2606,-2636 6197,-4284 10162,-4284 3964,0 7557,1648 10162,4284 2613,2645 4231,6291 4231,10264l0 5802 22786 0 0 -74357 -74359 0 0 22785 5802 0c3973,0 7619,1618 10264,4231 2636,2606 4284,6199 4284,10162zm-6382 8029c2081,-2055 3382,-4895 3382,-8029 0,-3134 -1300,-5974 -3382,-8029 -2102,-2078 -5002,-3364 -8166,-3364l-7302 0 -1500 0 0 -1500 0 -25785 0 -1500 1500 0 77359 0 1500 0 0 1500 0 77358 0 1500 -1500 0 -25786 0 -1500 0 0 -1500 0 -7302c0,-3164 -1286,-6064 -3364,-8166 -2055,-2081 -4896,-3382 -8029,-3382 -3135,0 -5974,1300 -8029,3382 -2076,2101 -3364,5001 -3364,8166l0 7302 0 1500 -1500 0 -25786 0 -1500 0 0 -1500 0 -25786 0 -1500 1500 0 7302 0c3165,0 6065,-1287 8166,-3364z"/>
   <path style="fill:white" d="M62166 37416l-2832 0 0 7423 -2151 0 0 -7423 -2847 0 0 -1889 7830 0 0 1889zm2493 -1889l2006 4276 2034 -4276 2347 0 -3318 6138 0 3174 -2138 0 0 -3200 -3266 -6112 2335 0zm2596 -617l-1338 -367 683 -1704 1902 0 -1246 2072zm11999 9929l0 -5574 -2019 4052 -1154 0 -2020 -4052 0 5574 -2151 0 0 -9312 2335 0 2413 4866 2425 -4866 2321 0 0 9312 -2151 0z"/>
  </g>
</svg>
