<svg xmlns="http://www.w3.org/2000/svg" xml:space="preserve" width="35px" height="21px" version="1.1" style="shape-rendering:geometricPrecision; text-rendering:geometricPrecision; image-rendering:optimizeQuality; fill-rule:evenodd; clip-rule:evenodd"
viewBox="0 0 250000 150000"
 xmlns:xlink="http://www.w3.org/1999/xlink">
 <g>
   <path class="fill666" d="M159901 65013c-28826,0 -52194,18144 -52194,40527 0,22382 23368,40527 52194,40527 11405,0 21953,-2843 30540,-7662l44682 5819 -28950 -19916 -2 -2c3783,-5610 5924,-11994 5924,-18767 0,-22383 -23368,-40527 -52194,-40527z"/>
   <path class="fillwhite" d="M159901 68807c-13548,0 -25773,4231 -34580,11069 -8538,6630 -13820,15709 -13820,25664 0,9954 5282,19034 13820,25663 8808,6839 21032,11069 34580,11069 5300,0 10388,-645 15135,-1835 4907,-1231 9472,-3046 13552,-5336l1084 -609 1258 165 29126 3793 -15600 -10733 -4207 -1403 2780 -4126c1714,-2544 3053,-5265 3952,-8114 862,-2731 1320,-5590 1320,-8533 0,-9956 -5282,-19035 -13820,-25664 -8808,-6839 -21031,-11069 -34580,-11069zm-39234 5082c10082,-7828 23959,-12671 39234,-12671 15276,0 29152,4843 39234,12671 10351,8037 16755,19224 16755,31651 0,3724 -583,7349 -1676,10817 -748,2368 -1737,4662 -2948,6865l26004 17893 12919 8887 -15556 -2026 -43446 -5659c-4367,2328 -9181,4185 -14314,5472 -5362,1345 -11069,2073 -16972,2073 -15275,0 -29152,-4843 -39234,-12671 -10351,-8037 -16755,-19224 -16755,-31650 0,-12428 6404,-23614 16755,-31651z"/>
   <path class="fill666" d="M112148 3795c37277,0 67495,23464 67495,52408 0,28944 -30219,52408 -67495,52408 -14747,0 -28389,-3676 -39493,-9907l-57780 7525 37436 -25755 4 -2c-4892,-7256 -7663,-15510 -7663,-24268 0,-28944 30219,-52408 67495,-52408z"/>
   <path class="fillwhite" d="M112148 0c19502,0 37204,6172 50054,16150 13119,10188 21236,24345 21236,40051 0,15708 -8118,29864 -21236,40052 -12850,9978 -30552,16150 -50054,16150 -7545,0 -14832,-928 -21679,-2646 -6670,-1672 -12912,-4098 -18562,-7145l-56542 7363 -15555 2026 12917 -8887 34463 -23710c-1753,-3048 -3172,-6243 -4215,-9550 -1381,-4377 -2115,-8953 -2115,-13655 0,-15706 8117,-29863 21236,-40051 12850,-9978 30552,-16150 50053,-16150zm45401 22137c-11576,-8988 -27625,-14549 -45401,-14549 -17774,0 -33823,5561 -45399,14549 -11307,8779 -18301,20830 -18301,34064 0,3922 612,7732 1759,11372 1195,3784 2973,7400 5250,10779l2408 3568 -3601 1801 -24320 16732 42223 -5499 1259 -164 1083 609c5362,3009 11356,5393 17798,7009 6230,1563 12901,2408 19841,2408 17776,0 33825,-5561 45401,-14549 11307,-8779 18301,-20830 18301,-34065 0,-13234 -6995,-25285 -18301,-34064z"/>
  </g>
</svg>
