<svg xmlns="http://www.w3.org/2000/svg" xml:space="preserve" width="35px" height="21px" version="1.1" style="shape-rendering:geometricPrecision; text-rendering:geometricPrecision; image-rendering:optimizeQuality; fill-rule:evenodd; clip-rule:evenodd"
viewBox="0 0 250000 150000"
 xmlns:xlink="http://www.w3.org/1999/xlink">
 <g>
  <path class="fill666" d="M109902 146137l26108 0 71 -64871 21704 -1 3272 -25286 -25047 0c0,-4519 0,-9037 0,-13556 0,-8914 634,-14720 12273,-14871 4534,-58 9103,-7 13642,-7l0 -22636c-7668,-601 -17373,-1617 -24995,-635 -14712,1897 -24387,11393 -26518,26054 -784,5393 -510,19373 -510,25648l-21828 4 0 25286 21828 65 0 64807z"/>
 </g>
</svg>
