<svg xmlns="http://www.w3.org/2000/svg" xml:space="preserve" width="{$dim}" height="{$dim}" version="1.1" style="shape-rendering:geometricPrecision; text-rendering:geometricPrecision; image-rendering:optimizeQuality; fill-rule:evenodd; clip-rule:evenodd"
viewBox="0 0 100000 100000"
 xmlns:xlink="http://www.w3.org/1999/xlink">
 <g>
   <g>
    <path style="fill:#FFCA05" class="fil0" d="M46285 78244c0,-3855 3209,-6980 7065,-6980l3953 0 0 -13962 13962 0 0 -3953c0,-3855 3125,-7065 6982,-7065 3855,0 6980,3210 6980,7065l0 3953 13962 0 0 41886 -41886 0 0 -13962 -3953 0c-3855,0 -7065,-3126 -7065,-6982l0 0z"/>
    <path style="fill:white" class="fil1" d="M45473 78244c0,-2146 893,-4093 2320,-5502 1432,-1415 3405,-2290 5558,-2290l3142 0 0 -13150 0 -811 811 0 13149 0 0 -3142c0,-2153 875,-4127 2290,-5557 1411,-1428 3357,-2320 5503,-2320 2147,0 4093,892 5503,2320 1415,1430 2291,3404 2291,5557l0 3142 13149 0 813 0 0 811 0 41886 0 813 -813 0 -41885 0 -813 0 0 -813 0 -13149 -3142 0c-2152,0 -4127,-876 -5558,-2291 -1427,-1411 -2319,-3357 -2319,-5504l-1 1zm3456 -4346c-1127,1113 -1832,2650 -1832,4346 0,1697 704,3235 1832,4349 1137,1124 2707,1821 4422,1821l3954 0 811 0 0 811 0 13150 40262 0 0 -40262 -13150 0 -811 0 0 -811 0 -3954c0,-1714 -697,-3283 -1821,-4421 -1113,-1127 -2652,-1832 -4348,-1832 -1697,0 -3235,704 -4348,1832 -1124,1137 -1821,2707 -1821,4421l0 3954 0 811 -813 0 -13148 0 0 13150 0 811 -813 0 -3953 0c-1715,0 -3285,697 -4422,1821l-1 0z"/>
   </g>
   <g>
    <path style="fill:#69B300" class="fil2" d="M46287 78243c0,-3855 3209,-6979 7064,-6979l3953 0 0 -13961 -13960 0 0 3953c0,3855 -3125,7064 -6980,7064 -3855,0 -6980,-3209 -6980,-7064l0 -3953 -13961 0 0 41881 41882 0 0 -13960 -3953 0c-3856,0 -7064,-3126 -7064,-6980l-1 -1z"/>
    <path style="fill:white" class="fil1" d="M45475 78243c0,-2146 892,-4091 2319,-5502 1432,-1414 3405,-2290 5557,-2290l3142 0 0 -12336 -12337 0 0 3141c0,2153 -876,4126 -2290,5557 -1411,1427 -3356,2319 -5502,2319 -2146,0 -4091,-892 -5502,-2319 -1415,-1433 -2291,-3406 -2291,-5557l0 -3141 -12336 0 0 40256 40257 0 0 -12336 -3141 0c-2152,0 -4126,-876 -5557,-2291 -1427,-1410 -2320,-3356 -2320,-5502l0 0zm3455 -4346c-1127,1113 -1831,2650 -1831,4346 0,1697 704,3235 1831,4348 1139,1124 2708,1821 4421,1821l3953 0 813 0 0 811 0 13960 0 813 -813 0 -41881 0 -813 0 0 -813 0 -41880 0 -813 813 0 13961 0 811 0 0 813 0 3953c0,1713 697,3282 1821,4421 1113,1127 2650,1831 4346,1831 1697,0 3235,-704 4348,-1831 1123,-1137 1821,-2708 1821,-4421l0 -3953 0 -813 811 0 13961 0 811 0 0 813 0 13960 0 813 -811 0 -3953 0c-1714,0 -3283,697 -4421,1821l0 0z"/>
   </g>
   <g>
    <path style="fill:#005BD0" class="fil3" d="M68321 36362c0,3855 -3209,6980 -7064,6980l-3953 0 0 13961 13960 0 0 -3953c0,-3855 3125,-7064 6980,-7064 3855,0 6980,3209 6980,7064l0 3953 13960 0 0 -41881 -41881 0 0 13960 3953 0c3855,0 7064,3125 7064,6980l1 0z"/>
    <path style="fill:white" class="fil1" d="M69133 36362c0,2147 -892,4091 -2319,5502 -1432,1415 -3405,2291 -5557,2291l-3142 0 0 12336 12337 0 0 -3141c0,-2153 875,-4127 2290,-5557 1411,-1427 3356,-2320 5502,-2320 2146,0 4091,893 5502,2320 1415,1432 2290,3405 2290,5557l0 3141 12337 0 0 -40256 -40257 0 0 12336 3141 0c2151,0 4126,876 5557,2290 1427,1411 2320,3357 2320,5502l0 0zm-3455 4348c1127,-1113 1831,-2650 1831,-4348 0,-1696 -704,-3234 -1831,-4346 -1139,-1126 -2708,-1821 -4421,-1821l-3953 0 -813 0 0 -813 0 -13960 0 -811 813 0 41881 0 811 0 0 811 0 41881 0 813 -811 0 -13961 0 -811 0 0 -813 0 -3953c0,-1713 -697,-3283 -1821,-4421 -1113,-1127 -2650,-1831 -4346,-1831 -1697,0 -3235,704 -4348,1831 -1123,1137 -1821,2707 -1821,4421l0 3953 0 813 -811 0 -13961 0 -811 0 0 -813 0 -13961 0 -811 811 0 3953 0c1714,0 3283,-697 4421,-1821l0 0z"/>
   </g>
   <g>
    <path style="fill:red" class="fil4" d="M60478 18370c998,3724 -1293,7573 -5017,8571l-3819 1024 3613 13486 -13486 3614 1023 3817c998,3725 -1191,7634 -4916,8632 -3723,998 -7573,-1293 -8571,-5017l-1023 -3819 -13486 3614 -10840 -40459 40458 -10841 3614 13487 3819 -1024c3724,-997 7634,1192 8632,4915l0 0z"/>
    <path style="fill:white" class="fil1" d="M61262 18160c556,2074 197,4183 -816,5916 -1017,1736 -2696,3093 -4775,3651l-3034 813 3404 12703 210 784 -784 210 -12702 3403 813 3033c556,2080 222,4213 -775,5962 -993,1743 -2642,3109 -4716,3664 -2073,556 -4182,197 -5915,-816 -1737,-1017 -3093,-2696 -3651,-4775l-814 -3037 -12702 3403 -784 211 -209 -782 -10841 -40459 -210 -784 784 -210 40459 -10841 784 -209 210 784 3404 12702 3034 -814c2078,-556 4212,-221 5960,775 1743,992 3110,2642 3665,4715l1 -1zm-2212 5094c801,-1367 1083,-3034 644,-4674 -439,-1639 -1518,-2942 -2895,-3725 -1390,-791 -3087,-1058 -4742,-615l-3819 1024 -784 210 -210 -785 -3403 -12702 -38890 10421 10421 38893 12702 -3404 784 -210 210 782 1023 3819c443,1655 1522,2992 2903,3800 1368,800 3035,1083 4674,644 1639,-439 2943,-1518 3726,-2894 793,-1390 1058,-3087 615,-4743l-1024 -3819 -209 -784 784 -210 12702 -3403 -3404 -12703 -210 -784 784 -210 3819 -1023c1656,-444 2992,-1522 3801,-2904l-1 1z"/>
   </g>
 </g>
</svg>
