<svg xmlns="http://www.w3.org/2000/svg" xml:space="preserve" width="{$dim}" height="{$dim}" version="1.1" style="shape-rendering:geometricPrecision; text-rendering:geometricPrecision; image-rendering:optimizeQuality; fill-rule:evenodd; clip-rule:evenodd"
viewBox="0 0 520000 520000"
 xmlns:xlink="http://www.w3.org/1999/xlink">
 <g>
  <polygon class="fillyellow" points="88728,10799 368310,98091 88728,195013 "/>
  <rect class="fill666" x="60602" y="17049" width="28126" height="478125"/>
  <path class="fillwhite" d="M66853 488924l15625 0 0 -465624 -15625 0 0 465624zm21875 12501l-28126 0c-3451,0 -6250,-2799 -6250,-6250l0 -478125c0,-3451 2799,-6250 6250,-6250l28126 0c3451,0 6250,2799 6250,6250l0 478125c0,3451 -2799,6250 -6250,6250z"/>
  <path class="fill666" d="M238305 298303c0,15803 30159,28610 67373,28610 37215,0 67378,-12809 67378,-28610l0 -32297c0,15794 -30159,28600 -67378,28600 -37210,0 -67373,-12809 -67373,-28600l0 32297 0 0z"/>
  <path class="fillwhite" d="M244556 298303c0,5154 6085,10318 15922,14495 11443,4859 27413,7865 45200,7865 17786,0 33759,-3006 45203,-7865 9837,-4178 15925,-9340 15925,-14495l0 -12333c-3174,2218 -6880,4230 -11043,5996 -12938,5492 -30657,8890 -50085,8890 -19423,0 -37140,-3399 -50079,-8891 -4163,-1767 -7870,-3777 -11043,-5996l0 12334zm11040 25968c-14543,-6175 -23541,-15321 -23541,-25968l0 -32297 12501 0c0,5150 6087,10311 15926,14486 11444,4857 27413,7864 45196,7864 17787,0 33759,-3006 45202,-7863 9839,-4175 15926,-9337 15926,-14487l12501 0 0 32297c0,10645 -8998,19791 -23543,25968 -12939,5493 -30658,8893 -50086,8893 -19428,0 -37145,-3399 -50082,-8893z"/>
  <path class="fill666" d="M305678 294606c37215,0 67378,-12809 67378,-28600 0,-15807 -30159,-28610 -67378,-28610 -37210,0 -67373,12807 -67373,28610 0,15794 30163,28600 67373,28600l0 0z"/>
  <path class="fillwhite" d="M305678 288356c17785,0 33757,-3007 45201,-7864 9839,-4175 15927,-9337 15927,-14486 0,-5157 -6085,-10319 -15921,-14496 -11444,-4859 -27418,-7864 -45207,-7864 -17785,0 -33757,3007 -45200,7865 -9836,4178 -15922,9340 -15922,14495 0,5150 6087,10311 15925,14486 11444,4858 27416,7864 45197,7864zm50084 3609c-12939,5492 -30658,8891 -50084,8891 -19423,0 -37142,-3399 -50080,-8891 -14545,-6174 -23543,-15317 -23543,-25959 0,-10648 8996,-19791 23541,-25968 12939,-5493 30656,-8893 50082,-8893 19430,0 37150,3398 50089,8891 14543,6175 23539,15320 23539,25969 0,10643 -8999,19786 -23545,25959z"/>
  <path class="fill666" d="M198774 407329c37213,0 67375,-12809 67375,-28610 0,-15797 -30159,-28603 -67375,-28603 -37204,0 -67373,12809 -67373,28603 1,15800 30170,28610 67373,28610l0 0z"/>
  <path class="fillwhite" d="M198774 401078c17785,0 33758,-3007 45201,-7865 9837,-4178 15924,-9340 15924,-14495 0,-5152 -6085,-10313 -15924,-14490 -11443,-4857 -27415,-7863 -45201,-7863 -17780,0 -33752,3006 -45196,7865 -9839,4176 -15926,9338 -15926,14487 0,5153 6089,10316 15926,14493 11444,4859 27416,7866 45196,7866zm50084 3608c-12939,5493 -30657,8893 -50084,8893 -19422,0 -37140,-3400 -50079,-8894 -14544,-6176 -23544,-15321 -23544,-25967 0,-10643 9000,-19786 23544,-25961 12939,-5493 30657,-8893 50079,-8893 19427,0 37146,3398 50084,8890 14544,6175 23542,15318 23542,25963 0,10646 -8996,19791 -23542,25968z"/>
  <path class="fill666" d="M131403 475619c0,15807 30165,28610 67373,28610 37213,0 67375,-12807 67375,-28610l0 -32303c0,15803 -30159,28610 -67375,28610 -37204,0 -67373,-12809 -67373,-28610l0 32303 0 0z"/>
  <path class="fillwhite" d="M137653 475619c0,5156 6085,10318 15921,14495 11444,4859 27416,7865 45201,7865 17786,0 33759,-3007 45202,-7865 9837,-4176 15922,-9340 15922,-14495l0 -12332c-3172,2219 -6879,4230 -11040,5996 -12938,5493 -30656,8893 -50085,8893 -19423,0 -37141,-3399 -50080,-8894 -4162,-1768 -7870,-3778 -11042,-5998l0 12334zm11039 25968c-14542,-6175 -23539,-15319 -23539,-25968l0 -32303 12501 0c0,5153 6087,10316 15925,14493 11444,4859 27417,7866 45197,7866 17787,0 33759,-3006 45202,-7865 9837,-4176 15922,-9340 15922,-14495l12501 0 0 32303c0,10646 -8998,19793 -23541,25968 -12939,5493 -30657,8893 -50085,8893 -19427,0 -37145,-3399 -50084,-8893z"/>
  <path class="fill666" d="M131403 411018c0,15803 30165,28610 67373,28610 37213,0 67375,-12809 67375,-28610l0 -32303c0,15803 -30159,28610 -67375,28610 -37204,0 -67373,-12809 -67373,-28610l0 32303 0 0z"/>
  <path class="fillwhite" d="M137653 411018c0,5154 6085,10317 15922,14493 11444,4859 27417,7866 45200,7866 17785,0 33758,-3007 45201,-7865 9837,-4178 15924,-9340 15924,-14495l0 -12332c-3172,2219 -6879,4230 -11040,5996 -12938,5493 -30656,8893 -50085,8893 -19423,0 -37141,-3399 -50080,-8894 -4162,-1768 -7870,-3778 -11042,-5998l0 12334zm11040 25967c-14543,-6175 -23541,-15320 -23541,-25967l0 -32303 12501 0c0,5153 6087,10316 15925,14493 11444,4859 27417,7866 45197,7866 17787,0 33759,-3006 45202,-7865 9837,-4176 15922,-9340 15922,-14495l12501 0 0 32303c0,10646 -8996,19791 -23542,25968 -12939,5493 -30657,8893 -50084,8893 -19426,0 -37143,-3399 -50082,-8894z"/>
  <path class="fill666" d="M131403 443316c0,15803 30165,28610 67373,28610 37213,0 67375,-12809 67375,-28610l-1 -32297c0,15803 -30159,28610 -67375,28610 -37204,0 -67373,-12809 -67373,-28610l1 32297 0 0z"/>
  <path class="fillwhite" d="M137653 443316c0,5154 6085,10317 15922,14493 11444,4859 27417,7866 45200,7866 17785,0 33758,-3007 45201,-7865 9837,-4178 15924,-9340 15924,-14495l25 0 0 -12344c-3178,2226 -6893,4243 -11066,6014 -12938,5493 -30656,8893 -50085,8893 -19423,0 -37141,-3399 -50080,-8894 -4173,-1772 -7887,-3789 -11066,-6014l0 12345 25 0zm11040 25967c-14543,-6175 -23541,-15320 -23541,-25967l25 0 -1 -31334c-17,-320 -25,-641 -25,-964l25 0 12451 0 25 0c0,5153 6087,10316 15925,14493 11444,4859 27417,7866 45197,7866 17787,0 33759,-3006 45202,-7865 9837,-4176 15922,-9340 15922,-14495l25 0 12451 0 25 0c0,322 -8,643 -25,961l1 31336 25 0c0,10646 -8996,19791 -23542,25968 -12939,5493 -30657,8893 -50084,8893 -19426,0 -37143,-3399 -50082,-8894z"/>
  <path class="fill666" d="M329080 480206c0,16016 30566,28994 68278,28994 37713,0 68288,-12978 68288,-28994l0 -32740c0,16016 -30572,28994 -68288,28994 -37709,0 -68278,-12978 -68278,-28994l0 32740 0 0z"/>
  <path class="fillwhite" d="M335331 480206c0,5261 6185,10520 16187,14766 11607,4929 27806,7977 45841,7977 18037,0 34238,-3050 45847,-7978 10003,-4246 16191,-9504 16191,-14765l0 -12663c-3240,2283 -7037,4349 -11308,6162 -13103,5563 -31051,9005 -50730,9005 -19676,0 -37621,-3442 -50724,-9006 -4270,-1813 -8066,-3879 -11304,-6161l0 12663zm11304 26239c-14708,-6246 -23805,-15487 -23805,-26239l0 -32740 12501 0c0,5261 6187,10519 16187,14765 11608,4929 27808,7978 45841,7978 18037,0 34239,-3048 45847,-7977 10003,-4246 16191,-9506 16191,-14766l12501 0 0 32740c0,10754 -9100,19994 -23809,26238 -13104,5564 -31051,9006 -50730,9006 -19677,0 -37622,-3442 -50724,-9005z"/>
  <path class="fill666" d="M329080 447303c0,16012 30566,28994 68278,28994 37713,0 68288,-12982 68288,-28994l0 -32740c0,16022 -30572,29000 -68288,29000 -37709,0 -68278,-12978 -68278,-29000l0 32740 0 0z"/>
  <path class="fillwhite" d="M335331 447303c0,5261 6188,10519 16189,14765 11607,4929 27806,7978 45839,7978 18034,0 34235,-3050 45845,-7978 10003,-4247 16193,-9506 16193,-14765l0 -12659c-3239,2282 -7036,4349 -11306,6162 -13104,5565 -31051,9007 -50732,9007 -19676,0 -37622,-3442 -50725,-9007 -4270,-1813 -8065,-3879 -11303,-6161l0 12658zm11307 26238c-14708,-6244 -23808,-15485 -23808,-26238l0 -32740 12501 0c0,5264 6185,10524 16186,14770 11609,4931 27808,7980 45842,7980 18038,0 34239,-3048 45849,-7980 10002,-4246 16188,-9506 16188,-14770l12501 0 0 32740c0,10752 -9102,19993 -23811,26238 -13104,5563 -31051,9006 -50727,9006 -19675,0 -37619,-3443 -50721,-9006z"/>
  <path class="fill666" d="M397359 378956c37713,0 68288,-12978 68288,-28997 0,-16016 -30572,-28990 -68288,-28990 -37709,0 -68278,12976 -68278,28990 0,16016 30566,28997 68278,28997l0 0z"/>
  <path class="fillwhite" d="M397359 372706c18037,0 34239,-3050 45848,-7978 10000,-4247 16189,-9507 16189,-14769 0,-5261 -6188,-10518 -16189,-14764 -11608,-4926 -27809,-7976 -45848,-7976 -18033,0 -34233,3048 -45841,7977 -10000,4246 -16187,9503 -16187,14763 0,5261 6188,10521 16188,14769 11607,4929 27806,7978 45840,7978zm50731 3495c-13104,5564 -31052,9006 -50731,9006 -19676,0 -37621,-3443 -50723,-9006 -14708,-6247 -23806,-15489 -23806,-26242 0,-10752 9098,-19993 23805,-26236 13103,-5563 31049,-9005 50724,-9005 19680,0 37628,3442 50731,9004 14708,6244 23808,15483 23808,26237 0,10755 -9099,19995 -23808,26242z"/>
  <path class="fill666" d="M305678 326912c37215,0 67378,-12809 67378,-28610l0 24585c-25694,4166 -43973,14694 -43973,27069 0,2459 794,4834 2150,7116 -7884,1372 -16500,2140 -25557,2140 -37210,0 -67373,-12809 -67373,-28606l0 -32303c1,15804 30164,28610 67374,28610z"/>
  <path class="fillwhite" d="M305678 320662c17786,0 33759,-3006 45203,-7865 9837,-4178 15925,-9340 15925,-14495l12501 0 0 24585c0,3286 -2538,5980 -5759,6232 -11985,1990 -22136,5418 -29190,9759 -5689,3502 -9024,7343 -9024,11078 0,625 96,1224 273,1794 208,673 549,1395 997,2148 1752,2966 769,6793 -2197,8544 -674,399 -1395,656 -2124,780l0 2c-4207,732 -8583,1299 -13077,1675 -4402,369 -8926,563 -13530,563 -19426,0 -37142,-3399 -50080,-8893 -14544,-6175 -23543,-15320 -23543,-25964l0 -32303 12501 0c0,5156 6086,10318 15922,14495 11443,4858 27416,7865 45201,7865zm28702 9886c-8803,1680 -18517,2615 -28702,2615 -19427,0 -37145,-3399 -50084,-8893 -4161,-1767 -7867,-3777 -11040,-5996l0 12332c0,5152 6086,10315 15925,14491 11443,4859 27413,7865 45197,7865 4310,0 8489,-177 12504,-514 1618,-136 3209,-295 4772,-480 -80,-670 -119,-1339 -119,-2013 0,-7370 4207,-13981 11546,-19408z"/>
  <path class="fill666" d="M329080 382697c0,16019 30566,29000 68278,29000 37713,0 68288,-12982 68288,-29000l0 -32740c0,16019 -30572,28997 -68288,28997 -37709,0 -68278,-12978 -68278,-28997l0 32740 0 0z"/>
  <path class="fillwhite" d="M335331 382697c0,5263 6187,10522 16187,14770 11607,4929 27806,7980 45841,7980 18037,0 34238,-3051 45847,-7980 10002,-4247 16191,-9508 16191,-14770l0 -12660c-3240,2282 -7036,4349 -11307,6162 -13104,5564 -31051,9006 -50731,9006 -19677,0 -37623,-3442 -50724,-9006 -4270,-1813 -8066,-3880 -11304,-6162l0 12660zm11304 26243c-14708,-6247 -23805,-15489 -23805,-26243l0 -32740 12501 0c0,5262 6188,10521 16187,14769 11607,4929 27807,7978 45841,7978 18038,0 34239,-3050 45848,-7978 10002,-4246 16189,-9506 16189,-14769l12501 0 0 32740c0,10755 -9100,19997 -23809,26243 -13104,5564 -31051,9007 -50730,9007 -19677,0 -37623,-3443 -50724,-9007z"/>
  <path class="fill666" d="M331239 357081c594,1006 1316,1990 2159,2956 -843,-969 -1561,-1950 -2159,-2956z"/>
  <path class="fillwhite" d="M336610 353907l15 27 8 13 8 13 7 13 21 34 25 41 25 39c156,256 319,502 490,739l46 60c203,278 489,628 854,1048l-14 12c2254,2589 1990,6516 -595,8778 -2589,2265 -6524,2003 -8790,-586l-11 -12 -13 12c-389,-446 -791,-947 -1206,-1498l-38 -51 -43 -57 -59 -78 -145 -196c-462,-631 -880,-1258 -1252,-1879l-11 -18 -32 -52 -33 -57 305 -180c-589,-2382 266,-4991 2367,-6530 2448,-1794 5773,-1539 7920,450l149 -87z"/>
  <path class="fill666" d="M305678 359213c8244,0 16103,-669 23404,-1819l0 25303c0,2309 644,6913 9,7019 -7291,1153 -15169,1794 -23413,1794 -14784,0 -28432,-2043 -39534,-5476 -653,-200 6,-5009 6,-7319 0,-9522 -10990,-17928 -27841,-23131l0 -24978c-4,15800 30159,28606 67369,28606z"/>
  <path class="fillwhite" d="M305678 352962c3926,0 7703,-151 11315,-431 3974,-308 7689,-748 11137,-1290 3397,-526 6579,1804 7104,5200 50,320 73,638 74,952l24 0 0 25303c0,710 60,1563 119,2414 338,4860 710,9745 -5335,10757 -146,25 -291,44 -436,57 -3870,602 -7770,1063 -11654,1359 -4065,311 -8196,476 -12348,476 -7462,0 -14731,-519 -21614,-1470 -7119,-986 -13770,-2451 -19750,-4299 -169,-52 -334,-112 -496,-176 -4639,-1728 -4341,-6280 -4037,-10680 60,-866 119,-1720 119,-2420 0,-2699 -1821,-5489 -5044,-8166 -4220,-3506 -10553,-6593 -18377,-9008 -2680,-823 -4403,-3291 -4402,-5956l-18 0 0 -24976 0 -2 12501 0 0 2c0,5151 6080,10310 15911,14485 11472,4873 27438,7890 45171,7893l0 -25 37 0zm12243 12020c-4028,312 -8120,481 -12243,481l-37 0 0 -25c-18210,-5 -34890,-2975 -47523,-7847 1709,1080 3278,2211 4695,3389 6128,5091 9587,11102 9587,17735 0,667 -56,1597 -123,2583 4189,1087 8712,1978 13494,2640 6188,856 12873,1322 19906,1322 3963,0 7779,-148 11420,-426 1997,-152 3928,-338 5792,-554 -35,-595 -59,-1142 -59,-1583l0 -18180c-1637,183 -3275,339 -4910,465zm-73362 -13874c618,224 1227,452 1828,686 -627,-399 -1238,-803 -1828,-1218l0 531z"/>
  <path class="fill666" d="M329080 415607c0,16012 30566,28994 68278,28994 37713,0 68288,-12982 68288,-28994l0 -32740c0,16012 -30572,28994 -68288,28994 -37709,0 -68278,-12982 -68278,-28994l0 32740 0 0z"/>
  <path class="fillwhite" d="M335331 415607c0,5261 6188,10519 16189,14765 11607,4929 27806,7978 45839,7978 18034,0 34235,-3050 45845,-7978 10003,-4247 16193,-9506 16193,-14765l0 -12664c-3240,2283 -7037,4349 -11309,6162 -13104,5563 -31051,9006 -50728,9006 -19675,0 -37618,-3443 -50721,-9006 -4271,-1813 -8067,-3879 -11307,-6162l0 12664zm11307 26238c-14708,-6244 -23808,-15485 -23808,-26238l0 -32740 12501 0c0,5259 6188,10519 16189,14765 11608,4929 27806,7978 45839,7978 18035,0 34237,-3050 45846,-7978 10004,-4247 16192,-9506 16192,-14765l12501 0 0 32740c0,10752 -9102,19993 -23811,26238 -13104,5563 -31051,9006 -50727,9006 -19675,0 -37619,-3443 -50721,-9006z"/>
  <path class="fill666" d="M266146 411018l0 -25006c11122,3431 24731,5497 39528,5497 8244,0 16103,-669 23404,-1819l0 25916c0,2109 550,6328 25,6412 -7291,1156 -15175,1794 -23428,1794 -14784,0 -28432,-2034 -39528,-5466 -653,-198 0,-5011 0,-7328z"/>
  <path class="fillwhite" d="M259896 411018l0 -25006c0,-3451 2799,-6250 6250,-6250 813,0 1589,155 2300,437 5242,1586 11085,2859 17379,3735 6169,857 12830,1325 19850,1325 3926,0 7703,-151 11315,-431 3974,-308 7689,-748 11137,-1290 3397,-526 6579,1804 7104,5200 50,320 73,638 74,952l24 0 0 25916c0,672 51,1444 102,2211l6 117c306,4659 589,9286 -5356,10237 -3967,628 -7990,1108 -12028,1416 -4074,312 -8212,476 -12377,476 -7467,0 -14741,-517 -21630,-1468 -7110,-983 -13755,-2445 -19729,-4292 -169,-52 -334,-112 -496,-176 -4637,-1726 -4341,-6287 -4041,-10694 59,-860 117,-1710 117,-2414zm12501 -16884l0 16884c0,666 -57,1599 -123,2590 4183,1084 8701,1972 13479,2634 6190,855 12882,1319 19922,1319 3974,0 7799,-146 11448,-426 1970,-150 3881,-334 5732,-549 -17,-366 -27,-699 -27,-980l0 -18793c-1637,183 -3275,339 -4910,465 -4028,312 -8120,481 -12243,481 -7453,0 -14695,-521 -21558,-1474 -4071,-566 -7990,-1290 -11720,-2151z"/>
  <path class="fill666" d="M266146 443316l0 -24991c11109,3437 24737,5487 39528,5487 8259,0 16097,-684 23404,-1840l0 25328c0,2313 650,6922 15,7019 -7297,1156 -15175,1794 -23419,1794 -14784,0 -28432,-2031 -39528,-5466 -653,-203 0,-5013 0,-7331z"/>
  <path class="fillwhite" d="M259896 443316l0 -24991c0,-3451 2799,-6250 6250,-6250 814,0 1591,156 2303,438 5223,1584 11055,2854 17335,3725 6181,857 12859,1324 19890,1324 3899,0 7652,-154 11250,-436 3983,-313 7708,-758 11177,-1306 3397,-539 6591,1779 7129,5176 52,328 78,654 78,977l20 0 0 25328c0,686 61,1547 122,2407 348,4924 694,9862 -5430,10788 -132,20 -263,35 -394,46 -3827,594 -7702,1050 -11587,1346 -4071,312 -8206,476 -12365,476 -7469,0 -14746,-516 -21637,-1468 -7108,-983 -13750,-2444 -19722,-4292l-22 -7 -2 7c-5127,-1598 -4822,-6318 -4512,-10871 59,-862 117,-1713 117,-2417zm12501 -16865l0 16865c0,669 -56,1602 -123,2595 4181,1084 8696,1972 13472,2633 6193,856 12887,1319 19929,1319 3969,0 7789,-146 11437,-426 1984,-151 3909,-337 5774,-554 -34,-589 -58,-1133 -58,-1583l0 -18194c-1643,185 -3286,343 -4928,471 -4007,314 -8092,485 -12226,485 -7461,0 -14722,-520 -21598,-1473 -4058,-563 -7963,-1283 -11680,-2139z"/>
 </g>
</svg>
