<svg xmlns="http://www.w3.org/2000/svg" xml:space="preserve" width="{$dim}" height="{$dim}" version="1.1" style="shape-rendering:geometricPrecision; text-rendering:geometricPrecision; image-rendering:optimizeQuality; fill-rule:evenodd; clip-rule:evenodd"
viewBox="0 0 520000 520000"
 xmlns:xlink="http://www.w3.org/1999/xlink">
 <g>
  <path class="fill666" d="M183455 156071c0,20087 38341,36369 85637,36369 47307,0 85644,-16282 85644,-36369l0 -41053c0,20075 -38341,36357 -85644,36357 -47300,0 -85637,-16282 -85637,-36357l0 41053 0 0z"/>
  <path class="fillwhite" d="M189705 156071c0,7297 8130,14399 21273,19980 14750,6265 35288,10139 58114,10139 22831,0 43371,-3874 58120,-10137 13145,-5581 21274,-12684 21274,-19981l0 -19038c-4457,3539 -9987,6710 -16395,9430 -16245,6895 -38529,11163 -62999,11163 -24468,0 -46749,-4267 -62994,-11163 -6406,-2720 -11936,-5890 -16393,-9429l0 19037zm16390 31453c-17849,-7579 -28891,-18664 -28891,-31453l0 -41053 12501 0c0,7291 8132,14392 21275,19971 14748,6261 35284,10135 58112,10135 22830,0 43368,-3874 58116,-10135 13145,-5580 21278,-12680 21278,-19971l12501 0 0 41053c0,12789 -11041,23874 -28892,31454 -16245,6898 -38530,11165 -63002,11165 -24469,0 -46754,-4267 -62997,-11166z"/>
  <path class="fill666" d="M269096 151375c47307,0 85644,-16282 85644,-36357 0,-20091 -38341,-36369 -85644,-36369 -47300,0 -85637,16278 -85637,36369 -4,20075 38336,36357 85637,36357l0 0z"/>
  <path class="fillwhite" d="M269096 145125c22831,0 43368,-3874 58116,-10135 13146,-5580 21278,-12680 21278,-19971 0,-7298 -8130,-14400 -21273,-19981 -14748,-6263 -35290,-10137 -58121,-10137 -22828,0 -43368,3874 -58116,10137 -13142,5581 -21271,12683 -21271,19981l0 2c0,7287 8125,14385 21261,19963 14778,6276 35310,10162 58089,10166l0 -25 37 0zm62999 1338c-16245,6895 -38528,11163 -62999,11163l-37 0 0 -25c-24500,-5 -46772,-4264 -62972,-11144 -17842,-7578 -28879,-18657 -28879,-31436l0 -2c0,-12790 11040,-23874 28889,-31454 16245,-6898 38529,-11165 62999,-11165 24472,0 46759,4267 63004,11165 17849,7579 28891,18663 28891,31454 0,12784 -11042,23867 -28896,31445z"/>
  <path class="fill666" d="M133205 294660c47303,0 85637,-16282 85637,-36369 0,-20081 -38337,-36363 -85637,-36363 -47294,0 -85637,16282 -85637,36363 -1,20087 38343,36369 85637,36369l0 0z"/>
  <path class="fillwhite" d="M133205 288409c22831,0 43368,-3875 58115,-10137 13143,-5581 21272,-12684 21272,-19981 0,-7293 -8130,-14395 -21274,-19976 -14747,-6262 -35285,-10136 -58113,-10136 -22826,0 -43363,3874 -58113,10137 -13143,5580 -21274,12682 -21274,19975l0 1c0,7296 8130,14396 21271,19977 14783,6278 35323,10165 58104,10165l0 -25 12 0zm62998 1336c-16243,6898 -38525,11165 -62998,11165l-12 0 0 -25c-24502,-1 -46781,-4260 -62987,-11143 -17848,-7580 -28889,-18664 -28889,-31450l0 -1c0,-12785 11042,-23870 28892,-31448 16245,-6898 38528,-11165 62995,-11165 24470,0 46753,4267 62995,11164 17851,7580 28892,18664 28892,31449 0,12789 -11040,23874 -28890,31454z"/>
  <path class="fill666" d="M47567 381466c0,20091 38347,36369 85637,36369 47303,0 85637,-16278 85637,-36369l0 -41062c0,20087 -38337,36369 -85637,36369 -47294,0 -85637,-16282 -85637,-36369l0 41062 0 0z"/>
  <path class="fillwhite" d="M53817 381466c0,7297 8130,14400 21272,19980 14750,6263 35290,10139 58115,10139 22830,0 43369,-3874 58117,-10137 13141,-5580 21269,-12683 21269,-19981l0 -19039c-4456,3540 -9985,6711 -16390,9431 -16243,6898 -38526,11165 -62997,11165 -24469,0 -46754,-4267 -62997,-11166 -6405,-2720 -11934,-5891 -16390,-9431l0 19041zm16389 31453c-17849,-7578 -28890,-18664 -28890,-31453l0 -41062 12501 0c0,7296 8131,14399 21273,19980 14750,6265 35288,10139 58114,10139 22828,0 43367,-3875 58114,-10137 13143,-5581 21273,-12683 21273,-19981l12501 0 0 41062c0,12790 -11041,23876 -28887,31454 -16245,6898 -38529,11165 -63000,11165 -24467,0 -46753,-4267 -62998,-11166z"/>
  <path class="fill666" d="M47567 299353c0,20087 38347,36369 85637,36369 47303,0 85637,-16282 85637,-36369l0 -41062c0,20087 -38337,36369 -85637,36369 -47294,0 -85637,-16282 -85637,-36369l0 41062 0 0z"/>
  <path class="fillwhite" d="M53817 299353c0,7296 8131,14399 21274,19980 14748,6263 35288,10139 58113,10139 22831,0 43368,-3875 58115,-10137 13143,-5581 21272,-12684 21272,-19981l0 -19039c-4456,3540 -9985,6711 -16390,9431 -16243,6898 -38526,11165 -62997,11165 -24469,0 -46754,-4267 -62997,-11166 -6405,-2720 -11934,-5891 -16390,-9431l0 19041zm16391 31453c-17849,-7579 -28892,-18665 -28892,-31453l0 -41062 12501 0c0,7296 8131,14399 21273,19980 14750,6265 35288,10139 58114,10139 22828,0 43367,-3875 58114,-10137 13143,-5581 21273,-12683 21273,-19981l12501 0 0 41062c0,12789 -11040,23874 -28890,31454 -16243,6898 -38525,11165 -62998,11165 -24467,0 -46752,-4269 -62995,-11166z"/>
  <path class="fill666" d="M47567 340404c0,20087 38347,36369 85637,36369 47303,0 85637,-16282 85637,-36369l0 -41053c0,20087 -38337,36369 -85637,36369 -47294,0 -85637,-16282 -85637,-36369l0 41053 0 0z"/>
  <path class="fillwhite" d="M53817 340404c0,7296 8131,14399 21274,19980 14748,6263 35288,10139 58113,10139 22831,0 43368,-3875 58115,-10137 13143,-5581 21272,-12684 21272,-19981l0 -19030c-4456,3540 -9985,6711 -16390,9431 -16243,6898 -38526,11165 -62997,11165 -24469,0 -46754,-4267 -62997,-11166 -6405,-2720 -11934,-5891 -16390,-9431l0 19031zm16391 31453c-17849,-7579 -28892,-18665 -28892,-31453l0 -41053 12501 0c0,7296 8131,14399 21273,19980 14750,6265 35288,10139 58114,10139 22828,0 43367,-3875 58114,-10137 13143,-5581 21273,-12683 21273,-19981l12501 0 0 41053c0,12789 -11040,23874 -28890,31454 -16243,6898 -38525,11165 -62998,11165 -24467,0 -46752,-4269 -62995,-11166z"/>
  <path class="fill666" d="M298842 387297c0,20360 38856,36856 86788,36856 47941,0 86801,-16496 86801,-36856l0 -41616c0,20360 -38863,36856 -86801,36856 -47934,0 -86788,-16496 -86788,-36856l0 41616 0 0z"/>
  <path class="fillwhite" d="M305092 387297c0,7433 8259,14656 21607,20326 14958,6351 35784,10280 58930,10280 23151,0 43980,-3928 58939,-10280 13351,-5668 21611,-12893 21611,-20326l0 -19473c-4534,3626 -10178,6874 -16729,9656 -16455,6986 -39031,11308 -63821,11308 -24789,0 -47362,-4322 -63813,-11308 -6549,-2782 -12193,-6027 -16724,-9653l0 19471zm16724 31799c-18056,-7669 -29225,-18873 -29225,-31799l0 -41616 12501 0c0,7433 8257,14658 21607,20326 14956,6351 35784,10280 58930,10280 23148,0 43980,-3928 58938,-10280 13351,-5669 21612,-12894 21612,-20326l12501 0 0 41616c0,12926 -11172,24132 -29229,31799 -16455,6986 -39030,11308 -63822,11308 -24788,0 -47360,-4322 -63813,-11308z"/>
  <path class="fill666" d="M298842 345472c0,20356 38856,36856 86788,36856 47941,0 86801,-16500 86801,-36856l0 -41613c0,20366 -38863,36862 -86801,36862 -47934,0 -86788,-16496 -86788,-36862l0 41613 0 0z"/>
  <path class="fillwhite" d="M305092 345472c0,7430 8258,14656 21609,20324 14958,6351 35784,10282 58928,10282 23148,0 43978,-3930 58937,-10280 13352,-5669 21613,-12895 21613,-20326l0 -19465c-4533,3626 -10176,6874 -16728,9656 -16454,6987 -39031,11309 -63822,11309 -24790,0 -47362,-4322 -63814,-11309 -6549,-2782 -12190,-6030 -16723,-9656l0 19465zm16727 31798c-18057,-7667 -29228,-18875 -29228,-31798l0 -41613 12501 0c0,7436 8258,14661 21606,20330 14956,6353 35784,10282 58931,10282 23148,0 43980,-3928 58939,-10282 13351,-5669 21611,-12894 21611,-20330l12501 0 0 41613c0,12924 -11172,24131 -29231,31799 -16454,6985 -39030,11308 -63820,11308 -24787,0 -47358,-4323 -63810,-11309z"/>
  <path class="fill666" d="M385633 258593c47941,0 86801,-16496 86801,-36860 0,-20360 -38863,-36853 -86801,-36853 -47934,0 -86788,16494 -86788,36853 -4,20363 38854,36860 86788,36860l0 0z"/>
  <path class="fillwhite" d="M385633 252343c23150,0 43980,-3928 58939,-10282 13351,-5669 21611,-12893 21611,-20328 0,-7432 -8259,-14655 -21611,-20323 -14960,-6351 -35791,-10279 -58939,-10279 -23147,0 -43974,3928 -58930,10279 -13350,5668 -21607,12892 -21607,20323l0 2c0,7433 8255,14655 21599,20323 14986,6366 35806,10305 58902,10309l0 -25 37 0zm63822 1192c-16454,6987 -39030,11309 -63822,11309l-37 0 0 -25c-24816,-5 -47376,-4317 -63784,-11287 -18052,-7668 -29217,-18873 -29217,-31797l0 -2c0,-12924 11169,-24129 29225,-31797 16452,-6985 39024,-11307 63813,-11307 24790,0 47367,4322 63822,11307 18057,7667 29229,18872 29229,31797 0,12927 -11170,24132 -29229,31801z"/>
  <path class="fill666" d="M269096 192441c47307,0 85644,-16282 85644,-36369l0 31253c-32660,5294 -55897,18678 -55897,34409 0,3125 1006,6144 2734,9047 -10025,1747 -20975,2719 -32484,2719 -47300,0 -85637,-16282 -85637,-36366l0 -41062c-1,20087 38339,36369 85639,36369z"/>
  <path class="fillwhite" d="M269096 186190c22831,0 43371,-3874 58120,-10137 13145,-5581 21274,-12684 21274,-19981l12501 0 0 31253c0,3286 -2537,5980 -5758,6232 -15522,2563 -28693,7009 -37860,12652 -7741,4765 -12279,10137 -12279,15526 0,959 150,1885 425,2776 308,994 796,2033 1429,3098 1752,2966 769,6793 -2197,8544 -674,399 -1395,656 -2124,780l0 2c-5291,921 -10798,1635 -16465,2108 -5546,463 -11255,709 -17069,709 -24469,0 -46752,-4267 -62997,-11165 -17849,-7579 -28891,-18663 -28891,-31452l0 -41061 0 -1 12501 0 0 1c0,7296 8128,14396 21269,19977 14783,6279 35323,10165 58108,10165l0 -25 12 0zm45771 7071c-13428,3448 -29091,5430 -45771,5430l-12 0 0 -25c-24506,-1 -46786,-4260 -62991,-11143 -6404,-2719 -11930,-5890 -16387,-9429l0 19039c0,7297 8130,14398 21273,19978 14748,6263 35287,10137 58114,10137 5523,0 10886,-228 16044,-659 2675,-224 5296,-501 7857,-828 -263,-1336 -402,-2679 -402,-4029 0,-10106 6738,-19093 18236,-26170 1283,-790 2629,-1558 4038,-2303zm33622 -15167c-2774,2203 -5963,4264 -9521,6161 3064,-793 6242,-1509 9521,-2145l0 -4016z"/>
  <path class="fill666" d="M298842 263347c0,20366 38856,36866 86788,36866 47941,0 86801,-16500 86801,-36866l0 -41613c0,20362 -38863,36860 -86801,36860 -47934,0 -86788,-16496 -86788,-36860l0 41613 0 0z"/>
  <path class="fillwhite" d="M305092 263347c0,7436 8258,14662 21607,20333 14958,6352 35784,10283 58930,10283 23150,0 43980,-3930 58939,-10283 13351,-5670 21611,-12898 21611,-20333l0 -19467c-4534,3627 -10178,6874 -16729,9656 -16454,6987 -39030,11309 -63821,11309 -24789,0 -47361,-4322 -63814,-11309 -6549,-2782 -12191,-6028 -16723,-9654l0 19466zm16724 31806c-18056,-7670 -29225,-18878 -29225,-31806l0 -41613 12501 0c0,7435 8257,14660 21606,20328 14959,6353 35785,10282 58931,10282 23148,0 43978,-3928 58938,-10282 13351,-5669 21612,-12895 21612,-20328l12501 0 0 41613c0,12927 -11170,24136 -29229,31806 -16454,6987 -39031,11310 -63822,11310 -24788,0 -47360,-4323 -63813,-11310z"/>
  <path class="fill666" d="M301589 230784c756,1281 1672,2531 2747,3759 -1075,-1228 -1991,-2476 -2747,-3759z"/>
  <path class="fillwhite" d="M306960 227611c282,480 589,944 913,1387l125 170 18 24 72 96 35 47 72 94c193,249 385,489 576,718l111 131 24 28 38 43 26 31 28 32 26 31 -9376 8204 -64 -73 -69 -79 -118 -136 -8 -11 -41 -48 -79 -92 -92 -109 -31 -37 -60 -72 -86 -103 -9 -12 -84 -102 -89 -107 -34 -43 -47 -58 -34 -43 -63 -78 -102 -128 -63 -78 -34 -43 -43 -56 -13 -15 -150 -194 -13 -17 -409 -544 -187 -260 -35 -50 -9 -13 -148 -209c-442,-632 -848,-1258 -1217,-1881l11 -6 -11 -19c-1739,-2966 -744,-6781 2222,-8519 2960,-1735 6765,-748 8509,2204l11 -7z"/>
  <path class="fill666" d="M269096 233500c10478,0 20469,-847 29750,-2313l0 32163c0,2937 819,8791 13,8922 -9269,1466 -19284,2278 -29759,2278 -18797,0 -36137,-2597 -50256,-6959 -831,-256 6,-6366 6,-9304 0,-12103 -13969,-22791 -35387,-29404l0 -31753c-7,20087 38333,36369 85634,36369z"/>
  <path class="fillwhite" d="M269096 227249c5022,0 9870,-194 14524,-555 5054,-392 9817,-957 14274,-1659 3397,-526 6579,1804 7104,5200 50,320 73,638 74,952l24 0 0 32163c0,920 79,2055 158,3187 380,5428 759,10885 -5395,11888l-233 33c-4907,770 -9909,1361 -14950,1746 -5114,391 -10323,598 -15576,598 -9429,0 -18586,-651 -27240,-1848 -8961,-1240 -17328,-3082 -24847,-5405 -5301,-1636 -4925,-6944 -4571,-12074 79,-1146 157,-2277 157,-3185 0,-3965 -2537,-7946 -7029,-11679 -5539,-4603 -13786,-8634 -23939,-11769 -2680,-823 -4403,-3291 -4402,-5956l-18 0 0 -31747 0 -6 12501 0 0 6c0,7291 8120,14388 21248,19967 14771,6276 35295,10163 58062,10170l0 -25 73 0zm15452 11896c-5069,393 -10233,605 -15452,605l-73 0 0 -25c-24489,-8 -46752,-4269 -62945,-11148 -6396,-2718 -11915,-5887 -16365,-9420l0 5228c9726,3413 17870,7715 23816,12656 7395,6144 11571,13349 11571,21248 0,1020 -103,2506 -207,4015 -4,54 -268,27 -679,-45l-1893 -126c6449,1892 13592,3410 21247,4469 7957,1102 16532,1700 25532,1700 5065,0 9959,-189 14648,-548 3111,-237 6119,-542 9019,-907 -90,-1307 -171,-2575 -171,-3495l0 -25005c-2673,322 -5357,592 -8047,801zm-63874 22489c543,168 1093,333 1646,496l1893 126c-1911,-339 -6984,-1685 -3540,-622z"/>
  <path class="fill666" d="M298842 305181c0,20356 38856,36856 86788,36856 47941,0 86801,-16500 86801,-36856l0 -41613c0,20353 -38863,36856 -86801,36856 -47934,0 -86788,-16504 -86788,-36856l0 41613 0 0z"/>
  <path class="fillwhite" d="M305092 305181c0,7430 8258,14656 21609,20324 14958,6351 35784,10282 58928,10282 23148,0 43978,-3930 58937,-10280 13352,-5669 21613,-12895 21613,-20326l0 -19473c-4535,3626 -10180,6876 -16733,9658 -16456,6986 -39030,11309 -63817,11309 -24784,0 -47356,-4323 -63808,-11309 -6552,-2782 -12195,-6030 -16729,-9656l0 19471zm16727 31798c-18057,-7667 -29228,-18875 -29228,-31798l0 -41613 12501 0c0,7429 8261,14655 21612,20324 14958,6352 35782,10282 58925,10282 23146,0 43975,-3930 58935,-10282 13355,-5669 21615,-12895 21615,-20324l12501 0 0 41613c0,12924 -11172,24131 -29231,31799 -16454,6985 -39030,11308 -63820,11308 -24787,0 -47358,-4323 -63810,-11309z"/>
  <path class="fill666" d="M218842 299353l0 -31787c14134,4363 31441,6984 50250,6984 10478,0 20469,-847 29750,-2309l0 32941c0,2681 700,8047 31,8150 -9269,1472 -19291,2278 -29778,2278 -18797,0 -36137,-2584 -50250,-6947 -830,-254 -2,-6372 -2,-9309z"/>
  <path class="fillwhite" d="M212592 299353l0 -31787c0,-3451 2799,-6250 6250,-6250 815,0 1593,156 2308,441 6775,2060 14329,3710 22462,4839 7941,1103 16494,1704 25480,1704 5020,0 9866,-194 14518,-555 5056,-391 9822,-954 14280,-1656 3397,-526 6579,1804 7104,5200 50,320 73,638 74,952l24 0 0 32941c0,891 69,1919 136,2946 344,5204 683,10401 -5380,11353l1 4c-4964,788 -10026,1389 -15136,1779 -5126,392 -10348,598 -15619,598 -9437,0 -18601,-650 -27262,-1846 -8952,-1237 -17308,-3074 -24819,-5395 -5296,-1623 -4925,-6956 -4576,-12096 77,-1139 154,-2259 154,-3170zm12501 -23600l0 23600c0,1010 -102,2492 -203,3999 -4,57 -285,28 -716,-47l-1942 -130c6462,1902 13625,3425 21308,4487 7962,1101 16546,1697 25554,1697 5081,0 9990,-188 14691,-548 3078,-235 6057,-535 8927,-896 -66,-1048 -120,-2031 -120,-2733l0 -25786c-2675,324 -5362,592 -8053,800 -5068,393 -10230,605 -15446,605 -9419,0 -18555,-654 -27188,-1853 -5883,-817 -11510,-1893 -16812,-3194zm-4417 26953c514,158 1033,315 1557,469l1942 130c-1937,-340 -6917,-1646 -3498,-599z"/>
  <path class="fill666" d="M218842 340404l0 -31766c14122,4365 31447,6972 50250,6972 10494,0 20463,-866 29750,-2337l0 32197c0,2941 828,8797 19,8922 -9275,1472 -19291,2278 -29766,2278 -18797,0 -36137,-2581 -50250,-6947 -830,-260 -2,-6370 -2,-9319z"/>
  <path class="fillwhite" d="M212592 340404l0 -31766c0,-3451 2799,-6250 6250,-6250 816,0 1594,156 2309,441 6758,2057 14304,3703 22428,4828 7950,1103 16518,1703 25513,1703 4991,0 9813,-197 14447,-561 5066,-397 9843,-969 14326,-1678 3397,-539 6591,1779 7129,5176 52,328 78,654 78,977l20 0 0 32197c0,895 81,2037 162,3178 386,5470 785,10958 -5466,11920 -133,20 -266,35 -398,47 -4824,754 -9736,1330 -14689,1708 -5124,392 -10341,598 -15606,598 -9439,0 -18608,-648 -27272,-1846 -8948,-1235 -17301,-3073 -24809,-5395l-22 -7 -2 7c-5270,-1649 -4899,-6963 -4551,-12096 77,-1140 154,-2264 154,-3180zm12501 -23578l0 23578c0,1013 -102,2500 -203,4009 -4,59 -292,31 -731,-48l-1929 -129c6462,1903 13623,3426 21301,4487 7964,1102 16552,1697 25564,1697 5075,0 9979,-188 14678,-548 3100,-236 6100,-540 8992,-905 -91,-1299 -172,-2558 -172,-3497l0 -25031c-2682,327 -5376,600 -8076,811 -5046,396 -10196,611 -15423,611 -9425,0 -18576,-653 -27221,-1852 -5872,-815 -11489,-1887 -16779,-3183zm-4395 26948c507,157 1017,311 1532,462l1929 129c-1939,-346 -6842,-1657 -3458,-598l-2 7z"/>
  <polygon class="fillred" points="122407,401538 238589,285354 122407,169172 153370,138196 269557,254387 385745,138200 416711,169172 300527,285354 416711,401538 385745,432506 269557,316319 153370,432510 "/>
  <path class="fillred" d="M385745 147040l22128 22132 -116184 116184 116184 116184 -22128 22132 -116188 -116190 -116188 116188 -22126 -22132 116182 -116184 -116182 -116184 22126 -22132 116188 116188 116188 -116185m-232375 -17681l-8841 8841 -22126 22132 -8835 8837 8837 8837 107343 107347 -107343 107347 -8837 8837 8835 8837 22126 22132 8841 8841 8837 -8841 107351 -107342 107351 107347 8837 8841 8837 -8841 22132 -22132 8835 -8837 -8837 -8837 -107343 -107347 107343 -107347 8837 -8837 -8835 -8837 -22132 -22132 -8837 -8841 -8837 8841 -107351 107342 -107351 -107347 -8837 -8841 0 0z"/>
 </g>
</svg>
