<svg version="1.1" xmlns="http://www.w3.org/2000/svg"  x="0px" y="0px"
	 width="40px" height="40px" viewBox="0 0 566.93 566.93" enable-background="new 0 0 566.93 566.93" xml:space="preserve">
<g>
	
		<line fill="none" stroke="#FFFFFF" stroke-width="14" stroke-miterlimit="10" x1="195.745" y1="191.901" x2="436.663" y2="191.901"/>
	<line fill="none" stroke="#FFFFFF" stroke-width="14" stroke-miterlimit="10" x1="195.745" y1="284.3" x2="436.663" y2="284.3"/>
	<line fill="none" stroke="#FFFFFF" stroke-width="14" stroke-miterlimit="10" x1="195.745" y1="376.7" x2="436.663" y2="376.7"/>
	<path fill="#FFFFFF" d="M133.135,215.894h13.954V170.97h-11.087v-5.066c2.803-0.508,5.24-1.129,7.312-1.861c2.07-0.732,3.935-1.609,5.592-2.631
		h6.021v54.482h12.615v6.498h-34.407V215.894z"/>
	<path fill="#FFFFFF" d="M130.84,310.702c4.588-4.588,8.665-8.729,12.234-12.426c3.567-3.695,6.563-7.119,8.984-10.273
		c2.421-3.154,4.269-6.053,5.544-8.699c1.273-2.641,1.911-5.207,1.911-7.693c0-3.504-0.956-6.369-2.867-8.602
		c-1.912-2.229-4.812-3.346-8.697-3.346c-2.55,0-4.907,0.717-7.073,2.152c-2.167,1.432-4.143,3.17-5.926,5.207l-4.492-4.49
		c2.547-2.803,5.257-5.051,8.124-6.74c2.867-1.688,6.309-2.531,10.323-2.531c5.67,0,10.131,1.641,13.381,4.922
		c3.249,3.281,4.874,7.631,4.874,13.047c0,2.867-0.621,5.752-1.864,8.648c-1.242,2.9-2.963,5.895-5.16,8.984
		c-2.199,3.092-4.813,6.309-7.838,9.654c-3.027,3.346-6.356,6.898-9.988,10.656c1.656-0.125,3.377-0.252,5.161-0.381
		c1.783-0.129,3.472-0.191,5.065-0.191h17.683v6.785H130.84V310.702z"/>
	<path fill="#FFFFFF" d="M134.281,391.755c1.848,1.912,3.998,3.6,6.451,5.064c2.453,1.469,5.496,2.199,9.128,2.199c3.694,0,6.722-1.004,9.08-3.01
		c2.357-2.008,3.536-4.732,3.536-8.172c0-1.783-0.335-3.426-1.003-4.924c-0.67-1.496-1.769-2.787-3.298-3.871
		c-1.529-1.082-3.536-1.91-6.021-2.484c-2.484-0.574-5.544-0.859-9.175-0.859v-6.023c3.249,0,5.973-0.285,8.171-0.859
		c2.198-0.572,3.982-1.369,5.353-2.389c1.37-1.018,2.342-2.23,2.915-3.631c0.574-1.402,0.86-2.9,0.86-4.494
		c0-2.994-0.94-5.354-2.819-7.074c-1.88-1.719-4.444-2.58-7.694-2.58c-2.549,0-4.891,0.574-7.024,1.721
		c-2.136,1.148-4.127,2.646-5.974,4.492l-4.206-4.969c2.357-2.23,4.954-4.063,7.79-5.498c2.835-1.432,6.069-2.148,9.701-2.148
		c2.677,0,5.128,0.352,7.359,1.051c2.229,0.703,4.157,1.705,5.783,3.01c1.624,1.307,2.882,2.916,3.775,4.828
		c0.891,1.912,1.338,4.109,1.338,6.594c0,3.697-1.021,6.725-3.059,9.08c-2.04,2.359-4.716,4.176-8.029,5.449v0.383
		c1.848,0.445,3.568,1.098,5.162,1.957c1.591,0.861,2.994,1.945,4.205,3.252c1.209,1.305,2.15,2.818,2.819,4.539
		s1.003,3.633,1.003,5.734c0,2.678-0.524,5.1-1.576,7.266s-2.485,3.998-4.302,5.494c-1.815,1.498-3.935,2.645-6.355,3.441
		c-2.422,0.795-5.034,1.195-7.837,1.195c-2.423,0-4.636-0.238-6.643-0.719c-2.008-0.477-3.84-1.113-5.496-1.91
		c-1.658-0.797-3.14-1.703-4.444-2.723c-1.308-1.02-2.471-2.104-3.489-3.25L134.281,391.755z"/>
</g>
</svg>
