<svg version="1.1" xmlns="http://www.w3.org/2000/svg" x="0px" y="0px"
	 width="40px" height="40px" viewBox="0 0 566.93 566.93" enable-background="new 0 0 566.93 566.93" xml:space="preserve">
<path fill="#FFFFFF" d="M415.163,322.442c-8.684-32.812-23.347-58.682-41.168-72.092c-7.673,6.089-17.364,9.738-27.896,9.738
	c-10.533,0-20.222-3.649-27.895-9.737c-14.64,11.016-27.153,30.434-35.966,55.208c14.494,20.996,23.694,50.509,24.167,83.271h94.237
	C400.999,364.093,406.332,341.209,415.163,322.442z"/>
<path fill="#FFFFFF" d="M257.249,287.449c-7.657,6.046-17.313,9.667-27.805,9.667c-10.491,0-20.146-3.621-27.804-9.667
	c-25.272,16.809-43.197,55.794-43.868,101.381h143.346C300.449,343.243,282.521,304.257,257.249,287.449z"/>
<path fill="#FFFFFF" d="M477.601,212.482c-21.874,0-39.673,17.797-39.673,39.672c0,21.876,17.799,39.673,39.673,39.673
	c21.876,0,39.672-17.797,39.672-39.673C517.272,230.279,499.477,212.482,477.601,212.482z"/>
<path fill="#FFFFFF" d="M346.099,175.455c-21.874,0-39.673,17.797-39.673,39.672c0,21.876,17.799,39.673,39.673,39.673
	c21.876,0,39.672-17.797,39.672-39.673C385.771,193.252,367.975,175.455,346.099,175.455z"/>
<path fill="#FFFFFF" d="M97.944,175.455c-21.875,0-39.672,17.797-39.672,39.672c0,21.876,17.797,39.673,39.672,39.673
	c21.874,0,39.671-17.797,39.671-39.673C137.615,193.252,119.818,175.455,97.944,175.455z"/>
<path fill="#FFFFFF" d="M229.444,212.482c-21.875,0-39.672,17.797-39.672,39.672c0,21.876,17.797,39.673,39.672,39.673
	c21.876,0,39.673-17.797,39.673-39.673C269.117,230.279,251.32,212.482,229.444,212.482z"/>
<path fill="#FFFFFF" d="M505.404,287.449c-7.655,6.046-17.313,9.667-27.804,9.667c-10.492,0-20.146-3.621-27.805-9.667
	c-25.271,16.809-43.197,55.794-43.866,101.381h143.344C548.604,343.243,530.677,304.257,505.404,287.449z"/>
<path fill="#FFFFFF" d="M152.5,388.83c0.379-26.323,6.38-50.557,16.248-69.952c-8.862-31.675-23.342-56.714-40.889-70.225
	c-7.953,7.105-18.437,11.436-29.915,11.436c-11.479,0-21.963-4.33-29.917-11.436c-29.119,22.424-49.784,76.605-50.345,140.177H152.5
	z"/>
</svg>
