<?xml version="1.0" encoding="utf-8"?>
<!-- Generator: Adobe Illustrator 16.0.0, SVG Export Plug-In . SVG Version: 6.00 Build 0)  -->
<!DOCTYPE svg PUBLIC "-//W3C//DTD SVG 1.1//EN" "http://www.w3.org/Graphics/SVG/1.1/DTD/svg11.dtd">
<svg version="1.1" id="Layer_1" xmlns="http://www.w3.org/2000/svg" xmlns:xlink="http://www.w3.org/1999/xlink" x="0px" y="0px"
	 width="40px" height="40px" viewBox="0 0 280.666 280.667" enable-background="new 0 0 280.666 280.667"
	 xml:space="preserve">
<g>
	<path fill="none" stroke="#666666" stroke-width="3" stroke-miterlimit="10" d="M129.113,84.443
		c20.402-7.096,29.096-0.765,40.803,4.39c21.287,9.375,23.949-15.699,43.463-7.051c19.512,8.648,42.578-7.983,25.723-21.288
		c-16.852-13.305-27.965,4.434-41.689-10.644c-13.725-15.08-28.385-6.875-33.707,3.769c-5.322,10.644-15.6-2.986-29.268-3.36
		C119.443,49.851,108.711,91.539,129.113,84.443z"/>
	<path fill="none" stroke="#666666" stroke-width="3" stroke-miterlimit="10" d="M94.465,250.082
		c-37.873,10.148-62.031-8.91-62.031-8.91l7.773-82.292l7.771-82.293l47.875,67.382l47.879,67.38
		C143.732,211.349,132.34,239.933,94.465,250.082z"/>
	<path fill="#666666" d="M270.33,114.267c-7.656-11.637-38.967-14.721-43.646-15.121V84.09c-4.281,0.303-8.881-0.349-13.305-2.308
		c-19.514-8.648-22.176,16.426-43.463,7.051c-11.006-4.846-19.35-10.728-37.254-5.523V195.77l11.07,15.579
		c0,0-2.354,5.875-8.436,13.239h91.387V198c4.775-1.405,37.277-11.25,43.646-20.931C277.205,166.615,278.607,126.851,270.33,114.267
		z M257.586,166.4c-5.744,8.733-24.953,13.821-30.902,15.216v-67.34c5.848,0.125,24.535,1.291,30.902,10.968
		C265.172,136.775,264.414,156.023,257.586,166.4z"/>
	<polygon fill="#666666" points="40.652,154.153 76.113,116.187 66.047,102.02 43.273,126.402 	"/>
	<polygon fill="#666666" points="33.42,230.739 103.898,155.287 95.854,143.968 93.832,141.12 36.041,202.99 	"/>
	<path fill="#666666" d="M81.889,252.494l51.729-55.381l-10.068-14.167l-64.395,68.943C65.715,253.049,73.344,253.49,81.889,252.494
		z"/>
	<path fill="#666666" d="M47.979,76.586"/>
	<line fill="none" stroke="#666666" stroke-width="3" stroke-miterlimit="10" x1="32.434" y1="61.553" x2="8.064" y2="48.248"/>
	<line fill="none" stroke="#666666" stroke-width="3" stroke-miterlimit="10" x1="47.979" y1="55.138" x2="53.236" y2="27.608"/>
	<line fill="none" stroke="#666666" stroke-width="3" stroke-miterlimit="10" x1="65.719" y1="61.553" x2="88.068" y2="48.248"/>
	<line fill="none" stroke="#666666" stroke-width="3" stroke-miterlimit="10" x1="26.584" y1="83.3" x2="4.641" y2="84.188"/>
</g>
</svg>
