<?xml version="1.0" encoding="UTF-8"?>
<!DOCTYPE svg PUBLIC "-//W3C//DTD SVG 1.1//EN" "http://www.w3.org/Graphics/SVG/1.1/DTD/svg11.dtd">
<!-- Creator: CorelDRAW X6 -->
<svg xmlns="http://www.w3.org/2000/svg" xml:space="preserve" width="40px" height="40px" version="1.1" style="shape-rendering:geometricPrecision; text-rendering:geometricPrecision; image-rendering:optimizeQuality; fill-rule:evenodd; clip-rule:evenodd"
viewBox="0 0 100000 100000"
 xmlns:xlink="http://www.w3.org/1999/xlink">
 <defs>
  <style type="text/css">
   <![CDATA[
    .str1 {stroke:white;stroke-width:12499.7}
    .str0 {stroke:#666666;stroke-width:28125.8}
    .fil0 {fill:none}
    .fil2 {fill:#FEFEFE}
    .fil1 {fill:#666666}
    .fil4 {fill:white}
    .fil3 {fill:#666666;fill-rule:nonzero}
   ]]>
  </style>
 </defs>
 <g id="Layer_x0020_1">
  <metadata id="CorelCorpID_0Corel-Layer"/>
  <g id="_887668800">
   <polyline class="fil0 str0" points="-2574043,-319435 -2574043,117959 -2142789,117959 "/>
   <rect class="fil1" x="-2494874" y="-114997" width="66667" height="232955"/>
   <rect class="fil1" x="-2391751" y="-236105" width="66667" height="354065"/>
   <rect class="fil1" x="-2287581" y="-167355" width="66667" height="285315"/>
  </g>
  <g id="_887524416">
   <rect class="fil1" x="15761" width="6429" height="100001"/>
   <g>
    <polygon class="fil2" points="22989,2128 84239,27905 22989,56527 "/>
    <path id="1" class="fil3" d="M84428 29083l-61250 -25777 -378 -2355 61250 25777 850 2378 -472 -22zm-378 -2355l3124 1315 -2274 1063 -850 -2378zm-61723 28599l61250 -28622 1323 2400 -61250 28622 -1605 -1817 282 -583zm1323 2400l-1605 750 0 -2567 1605 1817zm282 -54982l0 54398 -1887 -1233 0 -54398 755 -561 1133 1794zm-1887 -1233l0 -879 755 318 -755 561z"/>
   </g>
   <rect class="fil1" x="32505" y="15669" width="8872" height="8872"/>
   <rect class="fil1" x="23633" y="42286" width="8872" height="8872"/>
   <rect class="fil1" x="41377" y="24541" width="8872" height="8872"/>
   <rect class="fil1" x="59122" y="24541" width="8872" height="8872"/>
   <polygon class="fil1" points="59122,33414 50249,33414 50249,42286 51595,42286 59122,38768 "/>
   <polygon class="fil1" points="50249,42286 41378,42286 41378,47060 50249,42915 "/>
   <polygon class="fil1" points="59122,24541 59122,18123 53292,15669 50249,15669 50249,24541 "/>
   <polygon class="fil1" points="74372,24541 67994,21858 67994,24541 "/>
   <polygon class="fil1" points="50249,15669 50249,14389 41378,10656 41378,15669 "/>
   <rect class="fil1" x="32505" y="33413" width="8872" height="8872"/>
   <polygon class="fil1" points="76866,25590 76866,30477 82368,27906 "/>
   <polygon class="fil1" points="67994,33414 67994,34623 70582,33414 "/>
   <rect class="fil1" x="23633" y="24541" width="8872" height="8872"/>
   <rect class="fil1" x="23633" y="6797" width="8872" height="8872"/>
  </g>
  <g>
   <rect class="fil1" x="-4580424" y="-1502713" width="457817" height="322256"/>
   <polyline class="fil0 str1" points="-4580424,-1502714 -4351517,-1255053 -4122609,-1502714 "/>
   <line class="fil0 str1" x1="-4580424" y1="-1180459" x2="-4434902" y2= "-1345268" />
   <line class="fil0 str1" x1="-4122609" y1="-1180459" x2="-4268135" y2= "-1345268" />
   <rect class="fil4" x="-4365376" y="-1324353" width="21719" height="21716"/>
   <path class="fil4" d="M-4369070 -1342509c-412,-30038 16969,-42272 29653,-51204 12125,-8528 20125,-14166 20537,-32769 428,-19147 -17837,-26632 -30213,-26997 -14431,-384 -30203,7238 -31037,30006l-26697 -972c1437,-39435 31350,-56556 58516,-55738 27781,813 56904,20119 56144,54291 -716,32097 -18719,44772 -31869,54025 -11563,8134 -18538,13047 -18319,28988l-26716 369z"/>
  </g>
  <g>
   <circle class="fil1" cx="-3849013" cy="-1643509" r="39063"/>
   <circle class="fil1" cx="-3636512" cy="-1799825" r="39063"/>
   <circle class="fil1" cx="-3597449" cy="-1541092" r="39063"/>
   <circle class="fil1" cx="-3405259" cy="-1675499" r="39063"/>
   <path class="fil1" d="M-3783927 -1794351l15788 17444c0,0 1572,-1569 3928,-3925 1166,-1191 2715,-2375 4276,-3750 1625,-1303 3184,-2909 5050,-4122 1809,-1287 3615,-2575 5313,-3781 1659,-1269 3454,-2062 4869,-2941 1443,-828 2653,-1515 3494,-2000 834,-500 1344,-722 1344,-722l-9216 -22100c0,4 -625,275 -1654,878 -1037,585 -2522,1419 -4303,2422 -1741,1065 -3938,2047 -5987,3581 -2091,1469 -4322,3038 -6550,4606 -2290,1487 -4231,3435 -6228,5026 -1928,1678 -3832,3135 -5275,4584 -2911,2881 -4848,4799 -4848,4799z"/>
   <path class="fil1" d="M-3826597 -1731444l21059 10284c0,0 1075,-2184 2750,-5419 837,-1619 1813,-3503 2859,-5525 1109,-1975 2294,-4081 3478,-6184 2316,-4253 5003,-8210 6841,-11313 2009,-2956 3347,-4925 3347,-4925l-19325 -13266c0,0 -1485,2187 -3706,5466 -2026,3384 -4978,7775 -7491,12378 -1284,2288 -2572,4576 -3775,6719 -1128,2178 -2184,4213 -3087,5953 -1796,3488 -2950,5835 -2950,5832z"/>
   <path class="fil1" d="M-3824610 -1673978c40,-122 81,-243 122,-366 3097,-9357 6657,-18528 6657,-18528l-21860 -8453c4,0 -3591,9260 -6800,18885 8256,526 15813,3591 21881,8463z"/>
   <path class="fil1" d="M-3582833 -1761791l-19743 12628c0,0 4713,7065 6947,14715 1240,3794 1869,7719 2147,10707 150,1491 241,2740 228,3631 25,881 38,1388 38,1388l23438 -172c0,0 -19,-710 -50,-1950 4,-1240 -116,-3019 -325,-5147 -391,-4250 -1322,-9940 -3082,-15382 -1709,-5440 -3972,-10694 -6047,-14366 -966,-1887 -1869,-3391 -2535,-4419 -645,-1039 -1017,-1633 -1017,-1633z"/>
   <path class="fil1" d="M-3721774 -1830051l3000 23866c0,0 2219,-91 5547,-228 1663,6 3606,-319 5678,-66 2075,175 4291,363 6500,550 1107,122 2225,125 3296,344 1069,222 2122,444 3141,653 2037,428 3940,822 5572,1162 1644,275 2956,737 3878,1054 922,304 1450,475 1450,475l4988 -23163c0,0 -650,-207 -1785,-575 -1134,-372 -2747,-928 -4766,-1266 -2007,-406 -4344,-878 -6843,-1388 -1253,-250 -2546,-509 -3860,-772 -1319,-262 -2691,-266 -4044,-412 -2715,-216 -5428,-435 -7978,-634 -1272,-156 -2506,-112 -3676,-44 -1169,50 -2275,97 -3296,141 -4076,183 -6801,305 -6801,305z"/>
   <path class="fil1" d="M-3608445 -1617564l-21166 -10065c0,0 -1175,2440 -2846,6256 -1672,3803 -3809,9057 -5537,14757 -1760,5666 -2994,11841 -3410,16738 -463,4878 -241,8328 -243,8328l23423 -878c0,0 -146,-2062 163,-5290 266,-3216 1113,-7619 2487,-12059 1344,-4441 3135,-8897 4610,-12228 1450,-3337 2519,-5558 2519,-5558z"/>
   <path class="fil1" d="M-3576142 -1683912l-22143 -7681c0,0 -2972,8603 -7213,17307 -4100,8675 -8932,17537 -8932,17537l20678 11032c0,0 1206,-2281 3013,-5704 1800,-3437 4175,-8075 6422,-12832 4612,-9438 8176,-19660 8176,-19660z"/>
   <path class="fil1" d="M-3434903 -1650099c-878,1728 -1806,3522 -2757,5309 -4646,8875 -9722,17491 -9722,17493l20197 11890c0,0 5369,-9112 10259,-18454 682,-1282 1350,-2563 2003,-3832 -7899,-2014 -14831,-6408 -19981,-12408z"/>
   <path class="fil1" d="M-3489854 -1570496l16603 16540c0,0 1919,-1959 4796,-4900 2681,-3059 6465,-7022 9819,-11237 6966,-8281 13090,-17028 13094,-17028l-19066 -13635c0,0 -5713,8150 -12069,15701 -3076,3878 -6475,7409 -8900,10197 -2565,2616 -4278,4363 -4278,4363z"/>
   <path class="fil1" d="M-3547402 -1537648l3040 23244c0,0 763,-103 2094,-285 1325,-219 3272,-344 5457,-982 2206,-569 4781,-1228 7540,-1935 2696,-837 5459,-1965 8269,-2994 2865,-959 5378,-2434 7891,-3587 1238,-609 2431,-1200 3566,-1760 1094,-604 2085,-1228 3019,-1775 3712,-2237 6188,-3725 6188,-3725l-12847 -19601c0,0 -2028,1215 -5072,3040 -763,454 -1587,944 -2459,1462 -904,441 -1857,900 -2841,1378 -1990,894 -4019,2150 -6219,2835 -8561,3770 -17623,4683 -17627,4683z"/>
  </g>
  <g>
   <path class="fil1" d="M-2874356 -1390591c-141085,0 -255458,114373 -255458,255458l510917 0c0,-141085 -114369,-255458 -255459,-255458z"/>
   <rect class="fil4" x="-2889127" y="-1412072" width="25001" height="47228"/>
   <rect class="fil4" transform="matrix(0.7071 0.7071 -0.7071 0.7071 -2.69122E+006 -1.34357E+006)" width="25003" height="47228"/>
   <rect class="fil4" x="-2642509" y="-1157008" width="47228" height="25001"/>
   <rect class="fil4" transform="matrix(-0.7071 0.7071 -0.7071 -0.7071 -3.02863E+006 -1.31022E+006)" width="25003" height="47228"/>
   <rect class="fil4" x="-3157976" y="-1157061" width="47228" height="25001"/>
   <circle class="fil4" cx="-2876627" cy="-1138261" r="27084"/>
   <polygon class="fil4" points="-2867580,-1125330 -2892252,-1144354 -2793258,-1289291 "/>
  </g>
  <g>
   <circle class="fil1" cx="-3250937" cy="-842221" r="48437"/>
   <polygon class="fil1" points="-3371509,-424062 -3412997,-440205 -3347743,-596626 -3307446,-568000 "/>
   <path class="fil1" d="M-3126770 -652757l18465 -32634c0,0 -105473,-67772 -160139,-93219 -4603,-2144 -17651,-8138 -27163,-4622 -9513,3516 -11981,7557 -14476,12534 -20560,41044 -39466,143236 -31432,159732 9634,19781 78957,50038 89714,71894 10756,21856 -76,114832 -76,114832l44516 269c0,0 8115,-110676 1669,-134382 -6447,-23706 -71395,-68026 -71395,-68026l30578 -93354 119738 66975z"/>
   <rect class="fil1" x="-3152660" y="-666650" width="16831" height="242592"/>
   <path class="fil1" d="M-3328846 -761012l-13 -4c3528,-4815 5926,-10519 6760,-16810 2713,-20525 -12194,-39428 -33294,-42219 -21103,-2793 -40413,11584 -43126,32113 -1054,7950 566,15644 4137,22269 -22,15 -85129,65807 -32326,110792 9481,5969 27410,17573 53778,7113 23900,-9481 32254,-91753 41254,-109854 997,-1075 1941,-2203 2806,-3391 11,0 18,-6 24,-9z"/>
  </g>
  <g>
   <circle class="fil1" cx="-2170818" cy="-1104156" r="48726"/>
   <path class="fil1" d="M-2092926 -1034453c-9657,-9657 -24232,-9310 -24232,-9310l-53663 0 -53663 0c0,0 -14575,-347 -24232,9310 -9653,9653 -9700,23237 -9700,23237l0 142032 29778 1 0 -113729 12122 0 0 292533 39632 0 0 -187954 6059 0 6059 0 0 187957 39632 0 0 -292533 12122 -1 0 113729 29778 0 0 -142032c6,-4 -40,-13588 -9693,-23241z"/>
   <circle class="fil1" cx="-1980851" cy="-1104156" r="48726"/>
   <path class="fil1" d="M-1902956 -1034453c-9657,-9657 -24232,-9310 -24232,-9310l-53663 0 -53663 0c0,0 -14575,-347 -24232,9310 -9653,9653 -9700,23237 -9700,23237l0 142032 29778 1 0 -113729 12123 0 0 292533 39631 0 0 -187954 6059 0 6060 0 0 187957 39631 0 0 -292533 12122 -1 0 113729 29778 0 0 -142032c4,-4 -44,-13588 -9693,-23241z"/>
   <circle class="fil1" cx="-1806943" cy="-1076985" r="42796"/>
   <path class="fil1" d="M-1738521 -1015760c-8484,-8482 -21285,-8176 -21285,-8176l-47137 1 -47138 0c0,0 -12800,-306 -21285,8176 -8478,8482 -8519,20410 -8519,20410l0 124761 26157 -1 0 -99897 10648 0 0 256958 34812 0 0 -165095 5322 -1 5322 0 0 165095 34812 1 0 -256958 10648 0 0 99897 26156 0 0 -124761c4,0 -34,-11930 -8512,-20410z"/>
   <circle class="fil1" cx="-2348447" cy="-1077313" r="42796"/>
   <path class="fil1" d="M-2280029 -1016087c-8484,-8482 -21285,-8176 -21285,-8176l-47137 0 -47138 0c0,0 -12800,-306 -21285,8176 -8478,8482 -8519,20410 -8519,20410l0 124761 26158 -1 0 -99897 10647 0 0 256958 34812 0 0 -165095 5322 0 5322 0 0 165095 34813 0 0 -256958 10647 0 0 99897 26157 0 0 -124760c6,0 -34,-11929 -8513,-20410z"/>
  </g>
  <g>
   <path class="fil1" d="M482582 -420581c0,-3855 3226,-6980 7102,-6980l3974 0 0 -13962 14038 0 0 -3953c0,-3855 3142,-7065 7019,-7065 3875,0 7017,3210 7017,7065l0 3953 14036 0 0 41886 -42110 0 0 -13962 -3974 0c-3875,0 -7102,-3126 -7102,-6982l0 0z"/>
   <path class="fil4" d="M481766 -420581c0,-2146 898,-4094 2332,-5503 1440,-1415 3424,-2289 5588,-2289l3159 0 0 -13150 0 -811 815 0 13219 0 0 -3142c0,-2153 880,-4127 2303,-5557 1419,-1428 3374,-2320 5532,-2320 2158,0 4115,892 5532,2320 1422,1430 2303,3404 2303,5557l0 3142 13219 0 817 0 0 811 0 41886 0 814 -817 0 -42109 0 -817 0 0 -814 0 -13149 -3158 0c-2164,0 -4149,-875 -5588,-2290 -1435,-1411 -2332,-3358 -2332,-5504l-1 1 2 -1zm3474 -4346c-1133,1113 -1841,2650 -1841,4346 0,1696 707,3235 1841,4349 1143,1123 2721,1821 4446,1821l3976 0 815 0 0 810 0 13150 40478 0 0 -40262 -13220 0 -815 0 0 -811 0 -3954c0,-1714 -702,-3282 -1831,-4421 -1120,-1127 -2667,-1832 -4371,-1832 -1707,0 -3253,704 -4371,1832 -1130,1137 -1831,2707 -1831,4421l0 3954 0 811 -819 0 -13218 0 0 13149 0 811 -817 0 -3974 0c-1724,0 -3302,697 -4446,1821l-1 0 0 2z"/>
   <path class="fil1" d="M482583 -420582c0,-3855 3227,-6979 7102,-6979l3974 0 0 -13961 -14035 0 0 3953c0,3854 -3142,7063 -7017,7063 -3875,0 -7017,-3209 -7017,-7063l0 -3953 -14036 0 0 41881 42107 0 0 -13961 -3974 0c-3876,0 -7102,-3125 -7102,-6979l-1 -1z"/>
   <path class="fil4" d="M481767 -420582c0,-2146 898,-4091 2332,-5502 1440,-1415 3424,-2290 5587,-2290l3159 0 0 -12337 -12403 0 0 3142c0,2152 -881,4126 -2303,5557 -1419,1427 -3373,2319 -5531,2319 -2158,0 -4113,-892 -5531,-2319 -1423,-1434 -2303,-3406 -2303,-5557l0 -3142 -12403 0 0 40256 40473 0 0 -12336 -3158 0c-2163,0 -4148,-876 -5587,-2291 -1434,-1409 -2333,-3356 -2333,-5502l0 0 1 1zm3474 -4346c-1133,1114 -1840,2650 -1840,4346 0,1697 707,3235 1840,4348 1146,1124 2722,1821 4445,1821l3974 0 817 0 0 811 0 13960 0 813 -817 0 -42105 0 -817 0 0 -813 0 -41880 0 -814 817 0 14036 0 815 0 0 814 0 3953c0,1713 700,3281 1831,4421 1119,1127 2665,1831 4369,1831 1707,0 3253,-704 4371,-1831 1129,-1137 1831,-2708 1831,-4421l0 -3953 0 -814 816 0 14035 0 816 0 0 814 0 13960 0 813 -816 0 -3974 0c-1723,0 -3300,698 -4445,1821l0 0 1 0z"/>
   <path class="fil1" d="M504736 -462463c0,3855 -3227,6980 -7102,6980l-3974 0 0 13961 14035 0 0 -3953c0,-3855 3142,-7064 7017,-7064 3876,0 7017,3209 7017,7064l0 3953 14035 0 0 -41881 -42105 0 0 13960 3974 0c3875,0 7102,3125 7102,6980l1 0z"/>
   <path class="fil4" d="M505552 -462463c0,2147 -896,4091 -2332,5502 -1440,1415 -3423,2291 -5587,2291l-3159 0 0 12336 12404 0 0 -3141c0,-2153 879,-4127 2302,-5557 1419,-1427 3373,-2320 5531,-2320 2158,0 4113,893 5531,2320 1423,1432 2303,3405 2303,5557l0 3141 12403 0 0 -40256 -40473 0 0 12336 3158 0c2163,0 4148,876 5587,2290 1435,1411 2333,3358 2333,5503l0 0 -1 -1zm-3474 4348c1133,-1113 1841,-2650 1841,-4348 0,-1696 -709,-3234 -1841,-4346 -1146,-1126 -2722,-1821 -4445,-1821l-3974 0 -817 0 0 -813 0 -13960 0 -811 817 0 42105 0 815 0 0 811 0 41881 0 813 -815 0 -14036 0 -815 0 0 -813 0 -3953c0,-1713 -700,-3283 -1831,-4421 -1119,-1127 -2665,-1831 -4369,-1831 -1707,0 -3253,704 -4371,1831 -1129,1136 -1831,2707 -1831,4421l0 3953 0 813 -816 0 -14035 0 -815 0 0 -813 0 -13961 0 -811 815 0 3974 0c1723,0 3300,-697 4445,-1821l0 0 -1 0z"/>
   <path class="fil1" d="M496851 -480455c1003,3724 -1300,7572 -5045,8570l-3839 1024 3632 13486 -13558 3614 1029 3817c1003,3725 -1198,7634 -4943,8632 -3743,998 -7613,-1292 -8617,-5016l-1028 -3820 -13559 3614 -10898 -40459 40675 -10841 3633 13487 3840 -1024c3744,-997 7675,1193 8679,4916l0 0 -1 0z"/>
   <path class="fil4" d="M497639 -480665c559,2074 198,4182 -820,5916 -1023,1736 -2711,3092 -4801,3651l-3050 813 3422 12703 211 784 -789 210 -12769 3403 817 3033c559,2080 223,4213 -780,5962 -998,1743 -2656,3109 -4741,3664 -2085,556 -4205,197 -5947,-816 -1747,-1017 -3110,-2695 -3671,-4775l-819 -3037 -12770 3403 -788 211 -210 -782 -10899 -40459 -211 -784 789 -210 40675 -10841 789 -208 210 783 3423 12703 3050 -815c2089,-555 4235,-221 5993,776 1752,991 3126,2641 3684,4715l1 -1 0 -1zm-2224 5094c806,-1368 1089,-3034 647,-4675 -441,-1638 -1526,-2941 -2910,-3724 -1397,-791 -3103,-1058 -4767,-615l-3840 1024 -788 210 -211 -785 -3422 -12702 -39098 10421 10478 38893 12770 -3404 788 -210 211 782 1028 3820c446,1655 1531,2992 2919,3800 1376,800 3052,1083 4700,644 1648,-438 2959,-1518 3746,-2894 797,-1390 1063,-3087 618,-4743l-1030 -3819 -210 -784 789 -210 12770 -3403 -3423 -12703 -210 -784 788 -210 3840 -1023c1664,-444 3007,-1521 3821,-2903l-1 0 -1 -1z"/>
  </g>
 </g>
</svg>
