<?xml version="1.0" encoding="utf-8"?>
<!-- Generator: Adobe Illustrator 16.0.0, SVG Export Plug-In . SVG Version: 6.00 Build 0)  -->
<!DOCTYPE svg PUBLIC "-//W3C//DTD SVG 1.1//EN" "http://www.w3.org/Graphics/SVG/1.1/DTD/svg11.dtd">
<svg version="1.1" id="Layer_1" xmlns="http://www.w3.org/2000/svg" xmlns:xlink="http://www.w3.org/1999/xlink" x="0px" y="0px"
	 width="40px" height="40px" viewBox="0 0 280.666 280.667" enable-background="new 0 0 280.666 280.667"
	 xml:space="preserve">
<path fill="#666666" d="M141.553,219.726c-17.928,0-35.183-8.44-46.727-23.027c-12.144-15.348-15.931-34.617-10.388-52.87
	c7.893-25.992,31.759-40.09,50.936-51.419c11.664-6.89,23.725-14.014,26.548-20.945c4.034-9.899,2.74-22.025-3.297-30.892
	c-3.891-5.714-11.483-12.478-25.615-12.478c-0.174,0-0.345,0-0.52,0.003c-5.806,0.067-10.159,1.809-13.702,5.48
	c-8.544,8.856-10.032,26.631-9.884,32.732l-23.438,0.667c-0.096-3.229-0.456-32.059,16.363-49.591
	c7.859-8.191,18.365-12.595,30.387-12.734c19.384-0.209,35.66,7.846,45.79,22.725c10.336,15.183,12.546,35.96,5.629,52.934
	c-5.807,14.25-20.636,23.01-36.336,32.285c-17.3,10.219-35.187,20.785-40.428,38.043c-3.275,10.791-0.965,22.276,6.341,31.509
	c7.541,9.53,18.909,14.789,30.45,14.064c18.743-1.179,29.844-30.248,32.255-40.338l22.806,5.449
	c-0.545,2.277-13.783,55.787-53.591,58.29C143.939,219.689,142.743,219.726,141.553,219.726z"/>
<circle fill="#666666" cx="136.726" cy="258.555" r="17.688"/>
</svg>
