<?xml version="1.0" encoding="UTF-8"?>
<!DOCTYPE svg PUBLIC "-//W3C//DTD SVG 1.1//EN" "http://www.w3.org/Graphics/SVG/1.1/DTD/svg11.dtd">
<!-- Creator: CorelDRAW X6 -->
<svg xmlns="http://www.w3.org/2000/svg" xml:space="preserve" width="40px" height="40px" version="1.1" style="shape-rendering:geometricPrecision; text-rendering:geometricPrecision; image-rendering:optimizeQuality; fill-rule:evenodd; clip-rule:evenodd"
viewBox="0 0 100000 100000"
 xmlns:xlink="http://www.w3.org/1999/xlink">
 <defs>
  <style type="text/css">
   <![CDATA[
    .str0 {stroke:white;stroke-width:12499.7}
    .fil3 {fill:none}
    .fil2 {fill:#FEFEFE}
    .fil1 {fill:#666666}
    .fil4 {fill:white}
    .fil0 {fill:#666666;fill-rule:nonzero}
   ]]>
  </style>
 </defs>
 <g id="Layer_x0020_1">
  <metadata id="CorelCorpID_0Corel-Layer"/>
  <g id="_888053280">
   <g>
    <path class="fil0" d="M593388 -51631l0 -100002 6430 0 0 100002 -3215 3215 -3215 -3215zm3215 3215l-3215 0 0 -3215 3215 3215zm98597 0l-98597 0 0 -6430 98597 0 0 6430z"/>
   </g>
   <rect class="fil1" x="614703" y="-104892" width="15242" height="53260"/>
   <rect class="fil1" x="638280" y="-132581" width="15242" height="80950"/>
   <rect class="fil1" x="662096" y="-116863" width="15242" height="65231"/>
  </g>
  <g>
   <rect class="fil1" x="940232" y="-182162" width="6429" height="100001"/>
   <g>
    <polygon class="fil2" points="947461,-180032 1008711,-154256 947461,-125635 "/>
    <path id="1" class="fil0" d="M1008900 -153078l-61250 -25777 -378 -2355 61250 25777 850 2378 -472 -22zm-378 -2355l3124 1315 -2274 1063 -850 -2378zm-61723 28598l61250 -28621 1323 2400 -61250 28621 -1605 -1817 282 -583zm1323 2400l-1605 750 0 -2567 1605 1817zm282 -54981l0 54397 -1887 -1233 0 -54397 755 -561 1133 1794zm-1887 -1233l0 -879 755 318 -755 561z"/>
   </g>
   <rect class="fil1" x="956977" y="-166493" width="8872" height="8872"/>
   <rect class="fil1" x="948104" y="-139876" width="8872" height="8872"/>
   <rect class="fil1" x="965849" y="-157621" width="8872" height="8872"/>
   <rect class="fil1" x="983593" y="-157621" width="8872" height="8872"/>
   <polygon class="fil1" points="983593,-148748 974721,-148748 974721,-139876 976066,-139876 983593,-143394 "/>
   <polygon class="fil1" points="974721,-139876 965849,-139876 965849,-135101 974721,-139247 "/>
   <polygon class="fil1" points="983593,-157621 983593,-164039 977763,-166493 974721,-166493 974721,-157621 "/>
   <polygon class="fil1" points="998844,-157621 992466,-160304 992466,-157621 "/>
   <polygon class="fil1" points="974721,-166493 974721,-167772 965849,-171506 965849,-166493 "/>
   <rect class="fil1" x="956977" y="-148748" width="8872" height="8872"/>
   <polygon class="fil1" points="1001337,-156572 1001337,-151684 1006840,-154256 "/>
   <polygon class="fil1" points="992466,-148748 992466,-147539 995054,-148748 "/>
   <rect class="fil1" x="948104" y="-157621" width="8872" height="8872"/>
   <rect class="fil1" x="948104" y="-175364" width="8872" height="8872"/>
  </g>
  <g>
   <rect class="fil1" x="-4580424" y="-1502713" width="457817" height="322256"/>
   <polyline class="fil3 str0" points="-4580424,-1502714 -4351517,-1255053 -4122609,-1502714 "/>
   <line class="fil3 str0" x1="-4580424" y1="-1180459" x2="-4434902" y2= "-1345268" />
   <line class="fil3 str0" x1="-4122609" y1="-1180459" x2="-4268135" y2= "-1345268" />
   <rect class="fil4" x="-4365376" y="-1324353" width="21719" height="21716"/>
   <path class="fil4" d="M-4369070 -1342509c-412,-30038 16969,-42272 29653,-51204 12125,-8528 20125,-14166 20537,-32769 428,-19147 -17837,-26632 -30213,-26997 -14431,-384 -30203,7238 -31037,30006l-26697 -972c1437,-39435 31350,-56556 58516,-55738 27781,813 56904,20119 56144,54291 -716,32097 -18719,44772 -31869,54025 -11563,8134 -18538,13047 -18319,28988l-26716 369z"/>
  </g>
  <g>
   <circle class="fil1" cx="7485" cy="55164" r="7485"/>
   <circle class="fil1" cx="48203" cy="25211" r="7485"/>
   <circle class="fil1" cx="55689" cy="74789" r="7485"/>
   <circle class="fil1" cx="92515" cy="49034" r="7485"/>
   <path class="fil1" d="M19956 26260l3025 3343c0,0 301,-300 754,-751 223,-229 520,-456 819,-719 312,-249 611,-557 969,-789 346,-247 692,-494 1018,-725 318,-243 661,-394 932,-563 278,-158 509,-291 670,-383 159,-96 257,-138 257,-138l-1766 -4235c0,1 -119,53 -317,169 -198,111 -483,272 -824,464 -334,203 -755,392 -1148,686 -400,281 -828,581 -1254,882 -439,285 -811,658 -1194,963 -369,321 -733,601 -1010,879 -559,552 -930,919 -930,919z"/>
   <path class="fil1" d="M11779 38314l4036 1970c0,0 206,-418 527,-1038 161,-309 347,-671 548,-1058 213,-378 439,-782 666,-1185 444,-815 959,-1573 1311,-2169 385,-566 641,-944 641,-944l-3703 -2542c0,0 -285,419 -710,1048 -389,648 -954,1489 -1436,2372 -246,438 -493,876 -723,1287 -216,417 -418,808 -592,1141 -344,669 -566,1117 -566,1117z"/>
   <path class="fil1" d="M12161 49326c7,-24 15,-46 24,-70 593,-1793 1276,-3550 1276,-3550l-4189 -1620c1,0 -687,1775 -1303,3619 1582,100 3030,689 4193,1622z"/>
   <path class="fil1" d="M58490 32499l-3784 2419c0,0 904,1355 1332,2820 237,726 358,1479 411,2052 28,286 46,524 44,696 5,169 7,266 7,266l4492 -33c0,0 -5,-136 -11,-373 1,-239 -21,-579 -61,-986 -76,-815 -254,-1905 -591,-2948 -327,-1042 -762,-2049 -1159,-2752 -185,-363 -358,-651 -485,-847 -124,-200 -195,-313 -195,-313z"/>
   <path class="fil1" d="M31865 19420l575 4572c0,0 425,-17 1063,-44 319,1 691,-60 1088,-12 398,33 822,69 1246,105 211,24 426,24 631,66 206,43 407,85 602,125 390,81 755,157 1068,222 315,53 567,142 743,202 177,58 278,91 278,91l957 -4439c0,0 -125,-39 -343,-110 -217,-71 -527,-178 -913,-242 -385,-78 -833,-169 -1311,-266 -241,-48 -489,-98 -741,-149 -253,-50 -515,-51 -775,-79 -520,-41 -1039,-83 -1528,-122 -243,-30 -481,-21 -704,-8 -224,9 -436,19 -632,27 -781,35 -1304,59 -1304,59z"/>
   <path class="fil1" d="M53581 60135l-4055 -1929c0,0 -226,468 -546,1199 -321,729 -730,1736 -1062,2828 -337,1085 -573,2269 -653,3208 -89,934 -46,1596 -46,1596l4488 -169c0,0 -28,-394 31,-1013 51,-617 214,-1460 477,-2310 257,-852 600,-1706 883,-2343 278,-639 482,-1065 482,-1065z"/>
   <path class="fil1" d="M59771 47422l-4243 -1472c0,0 -569,1649 -1383,3317 -785,1662 -1711,3360 -1711,3360l3963 2114c0,0 231,-437 578,-1094 345,-658 800,-1547 1231,-2458 883,-1808 1566,-3768 1566,-3768z"/>
   <path class="fil1" d="M86835 53901c-168,331 -346,674 -528,1017 -891,1701 -1864,3352 -1864,3352l3871 2278c0,0 1029,-1746 1967,-3536 130,-244 259,-490 384,-733 -1514,-386 -2843,-1228 -3829,-2378z"/>
   <path class="fil1" d="M76306 69154l3181 3170c0,0 369,-376 920,-939 514,-587 1239,-1346 1882,-2153 1335,-1587 2508,-3263 2509,-3263l-3653 -2613c0,0 -1095,1561 -2313,3008 -589,743 -1241,1420 -1706,1954 -491,502 -820,836 -820,836z"/>
   <path class="fil1" d="M65279 75448l582 4454c0,0 146,-19 402,-54 254,-41 626,-66 1045,-188 423,-109 917,-235 1444,-371 517,-161 1046,-377 1585,-574 549,-183 1030,-467 1512,-687 237,-117 465,-229 683,-337 210,-116 400,-235 579,-340 711,-429 1186,-713 1186,-713l-2461 -3756c0,0 -389,233 -972,582 -146,86 -304,181 -471,280 -172,85 -356,172 -544,265 -381,171 -770,411 -1192,543 -1639,722 -3377,896 -3377,896z"/>
  </g>
  <g>
   <path class="fil1" d="M659965 53320c-25074,0 -45400,20326 -45400,45400l90799 0c0,-25074 -20326,-45400 -45400,-45400z"/>
   <rect class="fil4" x="657340" y="49502" width="4443" height="8393"/>
   <rect class="fil4" transform="matrix(0.125665 0.125665 -0.125665 0.125665 692511 61676.1)" width="25003" height="47228"/>
   <rect class="fil4" x="701168" y="94832" width="8393" height="4443"/>
   <rect class="fil4" transform="matrix(-0.125665 0.125665 -0.125665 -0.125665 632547 67602.6)" width="25003" height="47228"/>
   <rect class="fil4" x="609560" y="94823" width="8393" height="4443"/>
   <circle class="fil4" cx="659561" cy="98164" r="4813"/>
   <polygon class="fil4" points="661170,100462 656784,97080 674377,71323 "/>
  </g>
  <g>
   <circle class="fil1" cx="411824" cy="-218007" r="10379"/>
   <polygon class="fil1" points="385988,-128405 377098,-131864 391080,-165382 399715,-159248 "/>
   <path class="fil1" d="M438430 -177409l3957 -6993c0,0 -22601,-14522 -34314,-19975 -986,-459 -3782,-1743 -5821,-990 -2039,754 -2568,1619 -3102,2686 -4406,8795 -8457,30692 -6736,34226 2065,4239 16919,10722 19224,15406 2306,4683 -15,24606 -15,24606l9539 57c0,0 1739,-23716 357,-28794 -1381,-5080 -15298,-14577 -15298,-14577l6552 -20003 25657 14352z"/>
   <rect class="fil1" x="432883" y="-180386" width="3606" height="51982"/>
   <path class="fil1" d="M395129 -200606l-2 -1c756,-1031 1270,-2254 1448,-3601 582,-4398 -2613,-8448 -7134,-9047 -4521,-598 -8660,2483 -9241,6881 -226,1704 122,3353 887,4772 -5,4 -18241,14101 -6927,23740 2032,1279 5874,3765 11524,1525 5121,-2032 6911,-19661 8839,-23540 214,-230 416,-472 601,-726 2,0 4,-1 5,-2z"/>
  </g>
  <g>
   <circle class="fil1" cx="911292" cy="27284" r="7007"/>
   <path class="fil1" d="M922493 37308c-1389,-1389 -3484,-1339 -3484,-1339l-7717 0 -7717 0c0,0 -2095,-50 -3484,1339 -1388,1388 -1395,3341 -1395,3341l0 20425 4282 1 0 -16356 1743 0 0 42069 5700 0 0 -27029 872 0 870 0 0 27029 5700 0 0 -42068 1743 0 0 16355 4282 0 0 -20425c1,-1 -6,-1955 -1394,-3343z"/>
   <circle class="fil1" cx="938610" cy="27284" r="7007"/>
   <path class="fil1" d="M949812 37308c-1389,-1389 -3484,-1339 -3484,-1339l-7717 0 -7717 0c0,0 -2095,-50 -3484,1339 -1389,1388 -1395,3341 -1395,3341l0 20425 4282 1 0 -16356 1743 0 0 42069 5700 0 0 -27029 870 0 872 0 0 27029 5700 0 0 -42068 1742 0 0 16355 4283 0 0 -20425c1,-1 -6,-1955 -1394,-3343z"/>
   <circle class="fil1" cx="963620" cy="31191" r="6154"/>
   <path class="fil1" d="M973459 39996c-1220,-1220 -3061,-1175 -3061,-1175l-6778 0 -6778 0c0,0 -1841,-45 -3061,1175 -1219,1220 -1225,2935 -1225,2935l0 17941 3762 0 0 -14366 1531 0 0 36952 5007 0 0 -23742 765 0 765 0 0 23742 5006 0 0 -36952 1532 0 0 14366 3761 0 0 -17941c1,0 -5,-1716 -1224,-2935z"/>
   <circle class="fil1" cx="885748" cy="31144" r="6154"/>
   <path class="fil1" d="M895586 39949c-1220,-1220 -3060,-1175 -3060,-1175l-6778 0 -6780 0c0,0 -1840,-45 -3060,1175 -1220,1220 -1226,2935 -1226,2935l0 17942 3762 -1 0 -14366 1532 0 0 36952 5006 0 0 -23742 765 0 765 0 0 23742 5007 0 0 -36952 1531 0 0 14366 3762 0 0 -17941c1,0 -5,-1715 -1225,-2935z"/>
  </g>
  <g>
   <path class="fil1" d="M482582 -420581c0,-3855 3226,-6980 7102,-6980l3974 0 0 -13962 14038 0 0 -3953c0,-3855 3142,-7065 7019,-7065 3875,0 7017,3210 7017,7065l0 3953 14036 0 0 41886 -42110 0 0 -13962 -3974 0c-3875,0 -7102,-3126 -7102,-6982l0 0z"/>
   <path class="fil4" d="M481766 -420581c0,-2146 898,-4094 2332,-5503 1440,-1415 3424,-2289 5588,-2289l3159 0 0 -13150 0 -811 815 0 13219 0 0 -3142c0,-2153 880,-4127 2303,-5557 1419,-1428 3374,-2320 5532,-2320 2158,0 4115,892 5532,2320 1422,1430 2303,3404 2303,5557l0 3142 13219 0 817 0 0 811 0 41886 0 814 -817 0 -42109 0 -817 0 0 -814 0 -13149 -3158 0c-2164,0 -4149,-875 -5588,-2290 -1435,-1411 -2332,-3358 -2332,-5504l-1 1 2 -1zm3474 -4346c-1133,1113 -1841,2650 -1841,4346 0,1696 707,3235 1841,4349 1143,1123 2721,1821 4446,1821l3976 0 815 0 0 810 0 13150 40478 0 0 -40262 -13220 0 -815 0 0 -811 0 -3954c0,-1714 -702,-3282 -1831,-4421 -1120,-1127 -2667,-1832 -4371,-1832 -1707,0 -3253,704 -4371,1832 -1130,1137 -1831,2707 -1831,4421l0 3954 0 811 -819 0 -13218 0 0 13149 0 811 -817 0 -3974 0c-1724,0 -3302,697 -4446,1821l-1 0 0 2z"/>
   <path class="fil1" d="M482583 -420582c0,-3855 3227,-6979 7102,-6979l3974 0 0 -13961 -14035 0 0 3953c0,3854 -3142,7063 -7017,7063 -3875,0 -7017,-3209 -7017,-7063l0 -3953 -14036 0 0 41881 42107 0 0 -13961 -3974 0c-3876,0 -7102,-3125 -7102,-6979l-1 -1z"/>
   <path class="fil4" d="M481767 -420582c0,-2146 898,-4091 2332,-5502 1440,-1415 3424,-2290 5587,-2290l3159 0 0 -12337 -12403 0 0 3142c0,2152 -881,4126 -2303,5557 -1419,1427 -3373,2319 -5531,2319 -2158,0 -4113,-892 -5531,-2319 -1423,-1434 -2303,-3406 -2303,-5557l0 -3142 -12403 0 0 40256 40473 0 0 -12336 -3158 0c-2163,0 -4148,-876 -5587,-2291 -1434,-1409 -2333,-3356 -2333,-5502l0 0 1 1zm3474 -4346c-1133,1114 -1840,2650 -1840,4346 0,1697 707,3235 1840,4348 1146,1124 2722,1821 4445,1821l3974 0 817 0 0 811 0 13960 0 813 -817 0 -42105 0 -817 0 0 -813 0 -41880 0 -814 817 0 14036 0 815 0 0 814 0 3953c0,1713 700,3281 1831,4421 1119,1127 2665,1831 4369,1831 1707,0 3253,-704 4371,-1831 1129,-1137 1831,-2708 1831,-4421l0 -3953 0 -814 816 0 14035 0 816 0 0 814 0 13960 0 813 -816 0 -3974 0c-1723,0 -3300,698 -4445,1821l0 0 1 0z"/>
   <path class="fil1" d="M504736 -462463c0,3855 -3227,6980 -7102,6980l-3974 0 0 13961 14035 0 0 -3953c0,-3855 3142,-7064 7017,-7064 3876,0 7017,3209 7017,7064l0 3953 14035 0 0 -41881 -42105 0 0 13960 3974 0c3875,0 7102,3125 7102,6980l1 0z"/>
   <path class="fil4" d="M505552 -462463c0,2147 -896,4091 -2332,5502 -1440,1415 -3423,2291 -5587,2291l-3159 0 0 12336 12404 0 0 -3141c0,-2153 879,-4127 2302,-5557 1419,-1427 3373,-2320 5531,-2320 2158,0 4113,893 5531,2320 1423,1432 2303,3405 2303,5557l0 3141 12403 0 0 -40256 -40473 0 0 12336 3158 0c2163,0 4148,876 5587,2290 1435,1411 2333,3358 2333,5503l0 0 -1 -1zm-3474 4348c1133,-1113 1841,-2650 1841,-4348 0,-1696 -709,-3234 -1841,-4346 -1146,-1126 -2722,-1821 -4445,-1821l-3974 0 -817 0 0 -813 0 -13960 0 -811 817 0 42105 0 815 0 0 811 0 41881 0 813 -815 0 -14036 0 -815 0 0 -813 0 -3953c0,-1713 -700,-3283 -1831,-4421 -1119,-1127 -2665,-1831 -4369,-1831 -1707,0 -3253,704 -4371,1831 -1129,1136 -1831,2707 -1831,4421l0 3953 0 813 -816 0 -14035 0 -815 0 0 -813 0 -13961 0 -811 815 0 3974 0c1723,0 3300,-697 4445,-1821l0 0 -1 0z"/>
   <path class="fil1" d="M496851 -480455c1003,3724 -1300,7572 -5045,8570l-3839 1024 3632 13486 -13558 3614 1029 3817c1003,3725 -1198,7634 -4943,8632 -3743,998 -7613,-1292 -8617,-5016l-1028 -3820 -13559 3614 -10898 -40459 40675 -10841 3633 13487 3840 -1024c3744,-997 7675,1193 8679,4916l0 0 -1 0z"/>
   <path class="fil4" d="M497639 -480665c559,2074 198,4182 -820,5916 -1023,1736 -2711,3092 -4801,3651l-3050 813 3422 12703 211 784 -789 210 -12769 3403 817 3033c559,2080 223,4213 -780,5962 -998,1743 -2656,3109 -4741,3664 -2085,556 -4205,197 -5947,-816 -1747,-1017 -3110,-2695 -3671,-4775l-819 -3037 -12770 3403 -788 211 -210 -782 -10899 -40459 -211 -784 789 -210 40675 -10841 789 -208 210 783 3423 12703 3050 -815c2089,-555 4235,-221 5993,776 1752,991 3126,2641 3684,4715l1 -1 0 -1zm-2224 5094c806,-1368 1089,-3034 647,-4675 -441,-1638 -1526,-2941 -2910,-3724 -1397,-791 -3103,-1058 -4767,-615l-3840 1024 -788 210 -211 -785 -3422 -12702 -39098 10421 10478 38893 12770 -3404 788 -210 211 782 1028 3820c446,1655 1531,2992 2919,3800 1376,800 3052,1083 4700,644 1648,-438 2959,-1518 3746,-2894 797,-1390 1063,-3087 618,-4743l-1030 -3819 -210 -784 789 -210 12770 -3403 -3423 -12703 -210 -784 788 -210 3840 -1023c1664,-444 3007,-1521 3821,-2903l-1 0 -1 -1z"/>
  </g>
 </g>
</svg>
