<?xml version="1.0" encoding="utf-8"?>
<!-- Generator: Adobe Illustrator 16.0.0, SVG Export Plug-In . SVG Version: 6.00 Build 0)  -->
<!DOCTYPE svg PUBLIC "-//W3C//DTD SVG 1.1//EN" "http://www.w3.org/Graphics/SVG/1.1/DTD/svg11.dtd">
<svg version="1.1" id="Layer_1" xmlns="http://www.w3.org/2000/svg" xmlns:xlink="http://www.w3.org/1999/xlink" x="0px" y="0px"
	 width="40px" height="40px" viewBox="0 0 280.666 280.667" enable-background="new 0 0 280.666 280.667"
	 xml:space="preserve">
<path fill="#666666" d="M245.191,155.218c9.058-2.244,15.78-10.403,15.78-20.154c0-11.48-9.307-20.787-20.786-20.787
	c0,0-40.798,0-77.565,0s5.904-65.079,8.27-78.341c2.366-13.262-0.304-24.205-11.5-29.051c-11.198-4.846-24.206,0.302-29.052,11.501
	c0,0-42.597,108.026-90.233,107.163c-7.761-0.14-14.755-0.17-20.41-0.155v110.642c28.311,12.729,91.481,39.567,120.884,39.567
	c38.543,0,68.425,0,68.425,0c11.479,0,25.984-9.309,25.984-20.787c0-9.751-1.524-17.91-10.581-20.155
	c9.057-2.243,20.975-10.402,20.975-20.153c0-9.036-0.579-16.703-8.631-19.568c8.052-2.864,19.025-10.532,19.025-19.567
	C255.775,165.622,254.249,157.462,245.191,155.218z"/>
</svg>
